<?xml version="1.0" encoding="UTF-8"?>
<COLLADA xmlns="http://www.collada.org/2005/11/COLLADASchema" version="1.4.1">
	<asset>
		<contributor>
			<author>Singularity Viewer User</author>
			<authoring_tool>Singularity Viewer Collada Export</authoring_tool>
		</contributor>
		<created>2014-11-26T12:12:31</created>
		<modified>2014-11-26T12:12:31</modified>
		<unit/>
		<up_axis>Z_UP</up_axis>
	</asset>
	<library_images>
		<image id="green_tga" name="green_tga" height="0" width="0">
			<init_from>green.tga</init_from>
		</image>
		<image id="goldleaf_tga" name="goldleaf_tga" height="0" width="0">
			<init_from>goldleaf.tga</init_from>
		</image>
		<image id="blue_tga" name="blue_tga" height="0" width="0">
			<init_from>blue.tga</init_from>
		</image>
		<image id="orange_tga" name="orange_tga" height="0" width="0">
			<init_from>orange.tga</init_from>
		</image>
		<image id="red_tga" name="red_tga" height="0" width="0">
			<init_from>red.tga</init_from>
		</image>
		<image id="Pointer_tga" name="Pointer_tga" height="0" width="0">
			<init_from>Pointer.tga</init_from>
		</image>
		<image id="purple_magic_circle1_tga" name="purple_magic_circle1_tga" height="0" width="0">
			<init_from>purple_magic_circle1.tga</init_from>
		</image>
	</library_images>
	<library_geometries>
		<geometry id="prim0-mesh">
			<mesh>
				<source id="prim0-positions">
					<float_array id="prim0-positions-array" count="246">0.4 0 0.5 0.365418 0.162695 0.5 0.267652 0.297258 0.5 0.123607 0.380423 0.5 -0.0418114 0.397809 0.5 -0.2 0.34641 0.5 -0.323607 0.235114 0.5 -0.391259 0.0831645 0.5 -0.391259 -0.0831648 0.5 -0.323607 -0.235114 0.5 -0.2 -0.34641 0.5 -0.0418111 -0.397809 0.5 0.123607 -0.380423 0.5 0.267652 -0.297258 0.5 0.365418 -0.162694 0.5 0.4 2.50339e-007 0.5 0.00437047 -1.49012e-008 0.5 0.5 0 -0.5 0.456773 0.203368 -0.5 0.334565 0.371572 -0.5 0.154508 0.475528 -0.5 -0.0522643 0.497261 -0.5 -0.25 0.433013 -0.5 -0.404509 0.293893 -0.5 -0.489074 0.103956 -0.5 -0.489074 -0.103956 -0.5 -0.404508 -0.293893 -0.5 -0.25 -0.433013 -0.5 -0.0522639 -0.497261 -0.5 0.154509 -0.475528 -0.5 0.334566 -0.371572 -0.5 0.456773 -0.203368 -0.5 0.5 3.12924e-007 -0.5 0.45 0 0 0.411095 0.183031 0 0.301109 0.334415 0 0.139058 0.427975 0 -0.0470379 0.447535 0 -0.225 0.389711 0 -0.364058 0.264503 0 -0.440166 0.0935601 0 -0.440166 -0.0935604 0 -0.364058 -0.264503 0 -0.225 -0.389712 0 -0.0470375 -0.447535 0 0.139058 -0.427975 0 0.301109 -0.334415 0 0.411096 -0.183031 0 0.45 2.81632e-007 0 0.4 0 0.5 0.365418 0.162695 0.5 0.267652 0.297258 0.5 0.123607 0.380423 0.5 -0.0418114 0.397809 0.5 -0.2 0.34641 0.5 -0.323607 0.235114 0.5 -0.391259 0.0831645 0.5 -0.391259 -0.0831648 0.5 -0.323607 -0.235114 0.5 -0.2 -0.34641 0.5 -0.0418111 -0.397809 0.5 0.123607 -0.380423 0.5 0.267652 -0.297258 0.5 0.365418 -0.162694 0.5 0.4 2.50339e-007 0.5 0.5 0 -0.5 0.456773 0.203368 -0.5 0.334565 0.371572 -0.5 0.154508 0.475528 -0.5 -0.0522643 0.497261 -0.5 -0.25 0.433013 -0.5 -0.404509 0.293893 -0.5 -0.489074 0.103956 -0.5 -0.489074 -0.103956 -0.5 -0.404508 -0.293893 -0.5 -0.25 -0.433013 -0.5 -0.0522639 -0.497261 -0.5 0.154509 -0.475528 -0.5 0.334566 -0.371572 -0.5 0.456773 -0.203368 -0.5 0.5 3.12924e-007 -0.5 0.00546308 -2.98023e-008 -0.5</float_array>
					<technique_common>
						<accessor count="82" source="#prim0-positions-array" stride="3">
							<param name="X" type="float"/>
							<param name="Y" type="float"/>
							<param name="Z" type="float"/>
						</accessor>
					</technique_common>
				</source>
				<source id="prim0-normals">
					<float_array id="prim0-normals-array" count="246">0 0 1.00007 0 0 1.00007 0 0 1.00007 0 0 1.00007 0 0 1.00007 0 0 1.00007 0 0 1.00007 0 0 1.00007 0 0 1.00007 0 0 1.00007 0 0 1.00007 0 0 1.00007 0 0 1.00007 0 0 1.00007 0 0 1.00007 0 0 1.00007 0 0 1.00007 0.992786 0.0654902 0.0992786 0.880318 0.463631 0.0992786 0.615635 0.781605 0.0992786 0.244503 0.964433 0.0992786 -0.168906 0.980502 0.0992786 -0.553109 0.827033 0.0992787 -0.841675 0.530562 0.0992786 -0.984707 0.142353 0.0992786 -0.957475 -0.270471 0.0992786 -0.764687 -0.636528 0.0992786 -0.439677 -0.892523 0.0992786 -0.0386425 -0.994193 0.0992786 0.369073 -0.923958 0.0992786 0.712972 -0.693962 0.0992786 0.933592 -0.343974 0.0992786 0.992786 0.0654902 0.0992786 0.993471 -0.0607468 0.0993472 0.932289 0.348586 0.0993471 0.709906 0.697645 0.0993471 0.364773 0.926075 0.0993471 -0.0434318 0.994379 0.0993471 -0.444127 0.890745 0.0993472 -0.768029 0.633093 0.0993472 -0.959131 0.265974 0.0993471 -0.984391 -0.147135 0.0993471 -0.839441 -0.534803 0.0993472 -0.549344 -0.829998 0.0993472 -0.16426 -0.981679 0.0993472 0.249226 -0.963619 0.0993471 0.619618 -0.77894 0.0993471 0.882873 -0.459576 0.0993472 0.993471 -0.0607468 0.0993472 0.986773 -0.129842 0.0986774 0.954274 0.28274 0.0986774 0.756772 0.646434 0.0986774 0.428417 0.898354 0.0986774 0.0259849 0.99494 0.0986774 -0.38094 0.919492 0.0986774 -0.721997 0.685055 0.0986773 -0.938214 0.332166 0.0986774 -0.992206 -0.0781572 0.0986773 -0.874636 -0.474967 0.0986773 -0.605833 -0.78965 0.0986774 -0.232276 -0.967796 0.0986774 0.181443 -0.978601 0.0986774 0.563789 -0.820197 0.0986773 0.848651 -0.519973 0.0986773 0.986773 -0.129842 0.0986774 0 0 -1.00004 0 0 -1.00004 0 0 -1.00004 0 0 -1.00004 0 0 -1.00004 0 0 -1.00004 0 0 -1.00004 0 0 -1.00004 0 0 -1.00004 0 0 -1.00004 0 0 -1.00004 0 0 -1.00004 0 0 -1.00004 0 0 -1.00004 0 0 -1.00004 0 0 -1.00004 0 0 -1.00004</float_array>
					<technique_common>
						<accessor count="82" source="#prim0-normals-array" stride="3">
							<param name="X" type="float"/>
							<param name="Y" type="float"/>
							<param name="Z" type="float"/>
						</accessor>
					</technique_common>
				</source>
				<source id="prim0-map0">
					<float_array id="prim0-map0-array" count="164">1 0.5 0.956773 0.703368 0.834565 0.871572 0.654508 0.975528 0.447736 0.997261 0.25 0.933013 0.0954914 0.793893 0.0109262 0.603956 0.0109262 0.396044 0.0954916 0.206107 0.25 0.0669872 0.447736 0.00273901 0.654509 0.0244718 0.834566 0.128428 0.956773 0.296632 1 0.5 0.505463 0.5 -0.5 0 -0.233333 0 0.0333333 0 0.3 0 0.566667 0 0.833333 0 1.1 0 1.36667 0 1.63333 0 1.9 0 2.16667 0 2.43333 0 2.7 0 2.96667 0 3.23333 0 3.5 0 -0.5 0.5 -0.233333 0.5 0.0333333 0.5 0.3 0.5 0.566667 0.5 0.833333 0.5 1.1 0.5 1.36667 0.5 1.63333 0.5 1.9 0.5 2.16667 0.5 2.43333 0.5 2.7 0.5 2.96667 0.5 3.23333 0.5 3.5 0.5 -0.5 1 -0.233333 1 0.0333333 1 0.3 1 0.566667 1 0.833333 1 1.1 1 1.36667 1 1.63333 1 1.9 1 2.16667 1 2.43333 1 2.7 1 2.96667 1 3.23333 1 3.5 1 1 0.5 0.956773 0.296632 0.834565 0.128428 0.654508 0.0244717 0.447736 0.00273907 0.25 0.0669874 0.0954914 0.206107 0.0109262 0.396044 0.0109262 0.603956 0.0954916 0.793893 0.25 0.933013 0.447736 0.997261 0.654509 0.975528 0.834566 0.871572 0.956773 0.703368 1 0.5 0.505463 0.5</float_array>
					<technique_common>
						<accessor count="82" source="#prim0-map0-array" stride="2">
							<param name="S" type="float"/>
							<param name="T" type="float"/>
						</accessor>
					</technique_common>
				</source>
				<vertices id="prim0-vertices">
					<input semantic="POSITION" source="#prim0-positions"/>
				</vertices>
				<polylist count="15" material="Material0-material">
					<input offset="0" semantic="VERTEX" source="#prim0-vertices" set="0"/>
					<input offset="0" semantic="NORMAL" source="#prim0-normals" set="0"/>
					<input offset="0" semantic="TEXCOORD" source="#prim0-map0" set="0"/>
					<vcount>3 3 3 3 3 3 3 3 3 3 3 3 3 3 3</vcount>
					<p>16 0 1 16 1 2 16 2 3 16 3 4 16 4 5 16 5 6 16 6 7 16 7 8 16 8 9 16 9 10 16 10 11 16 11 12 16 12 13 16 13 14 16 14 15</p>
				</polylist>
				<polylist count="60" material="Material1-material">
					<input offset="0" semantic="VERTEX" source="#prim0-vertices" set="0"/>
					<input offset="0" semantic="NORMAL" source="#prim0-normals" set="0"/>
					<input offset="0" semantic="TEXCOORD" source="#prim0-map0" set="0"/>
					<vcount>3 3 3 3 3 3 3 3 3 3 3 3 3 3 3 3 3 3 3 3 3 3 3 3 3 3 3 3 3 3 3 3 3 3 3 3 3 3 3 3 3 3 3 3 3 3 3 3 3 3 3 3 3 3 3 3 3 3 3 3</vcount>
					<p>17 34 33 17 18 34 18 35 34 18 19 35 19 36 35 19 20 36 20 37 36 20 21 37 21 38 37 21 22 38 22 39 38 22 23 39 23 40 39 23 24 40 24 41 40 24 25 41 25 42 41 25 26 42 26 43 42 26 27 43 27 44 43 27 28 44 28 45 44 28 29 45 29 46 45 29 30 46 30 47 46 30 31 47 31 48 47 31 32 48 33 50 49 33 34 50 34 51 50 34 35 51 35 52 51 35 36 52 36 53 52 36 37 53 37 54 53 37 38 54 38 55 54 38 39 55 39 56 55 39 40 56 40 57 56 40 41 57 41 58 57 41 42 58 42 59 58 42 43 59 43 60 59 43 44 60 44 61 60 44 45 61 45 62 61 45 46 62 46 63 62 46 47 63 47 64 63 47 48 64</p>
				</polylist>
				<polylist count="15" material="Material2-material">
					<input offset="0" semantic="VERTEX" source="#prim0-vertices" set="0"/>
					<input offset="0" semantic="NORMAL" source="#prim0-normals" set="0"/>
					<input offset="0" semantic="TEXCOORD" source="#prim0-map0" set="0"/>
					<vcount>3 3 3 3 3 3 3 3 3 3 3 3 3 3 3</vcount>
					<p>81 66 65 81 67 66 81 68 67 81 69 68 81 70 69 81 71 70 81 72 71 81 73 72 81 74 73 81 75 74 81 76 75 81 77 76 81 78 77 81 79 78 81 80 79</p>
				</polylist>
			</mesh>
		</geometry>
		<geometry id="prim1-mesh">
			<mesh>
				<source id="prim1-positions">
					<float_array id="prim1-positions-array" count="456">0.4 0 0.5 0.38637 0.103528 0.5 0.34641 0.2 0.5 0.282843 0.282843 0.5 0.2 0.34641 0.5 0.103528 0.38637 0.5 3.01992e-008 0.4 0.5 -0.103528 0.38637 0.5 -0.2 0.34641 0.5 -0.282843 0.282843 0.5 -0.34641 0.2 0.5 -0.38637 0.103528 0.5 -0.4 1.55766e-007 0.5 -0.38637 -0.103527 0.5 -0.34641 -0.2 0.5 -0.282843 -0.282843 0.5 -0.2 -0.34641 0.5 -0.103528 -0.38637 0.5 -1.85965e-007 -0.4 0.5 0.103527 -0.38637 0.5 0.2 -0.34641 0.5 0.282843 -0.282843 0.5 0.34641 -0.2 0.5 0.38637 -0.103528 0.5 0.4 -5.60284e-007 0.5 0 0 0.5 0.5 0 -0.5 0.482963 0.12941 -0.5 0.433013 0.25 -0.5 0.353553 0.353553 -0.5 0.25 0.433013 -0.5 0.12941 0.482963 -0.5 3.7749e-008 0.5 -0.5 -0.129409 0.482963 -0.5 -0.25 0.433013 -0.5 -0.353553 0.353553 -0.5 -0.433013 0.25 -0.5 -0.482963 0.12941 -0.5 -0.5 1.94707e-007 -0.5 -0.482963 -0.129409 -0.5 -0.433013 -0.25 -0.5 -0.353554 -0.353553 -0.5 -0.25 -0.433013 -0.5 -0.12941 -0.482963 -0.5 -2.32456e-007 -0.5 -0.5 0.129409 -0.482963 -0.5 0.25 -0.433013 -0.5 0.353553 -0.353554 -0.5 0.433013 -0.25 -0.5 0.482963 -0.12941 -0.5 0.5 -7.00355e-007 -0.5 0.466667 0 -0.166667 0.450765 0.120782 -0.166667 0.404145 0.233333 -0.166667 0.329983 0.329983 -0.166667 0.233333 0.404145 -0.166667 0.120782 0.450765 -0.166667 3.52324e-008 0.466667 -0.166667 -0.120782 0.450765 -0.166667 -0.233333 0.404145 -0.166667 -0.329983 0.329983 -0.166667 -0.404145 0.233333 -0.166667 -0.450765 0.120782 -0.166667 -0.466667 1.81727e-007 -0.166667 -0.450765 -0.120782 -0.166667 -0.404145 -0.233333 -0.166667 -0.329983 -0.329983 -0.166667 -0.233333 -0.404145 -0.166667 -0.120782 -0.450765 -0.166667 -2.16959e-007 -0.466667 -0.166667 0.120782 -0.450765 -0.166667 0.233333 -0.404145 -0.166667 0.329983 -0.329983 -0.166667 0.404145 -0.233334 -0.166667 0.450765 -0.120783 -0.166667 0.466667 -6.53664e-007 -0.166667 0.433333 0 0.166667 0.418568 0.112155 0.166667 0.375278 0.216667 0.166667 0.306413 0.306413 0.166667 0.216667 0.375278 0.166667 0.112155 0.418568 0.166667 3.27158e-008 0.433333 0.166667 -0.112155 0.418568 0.166667 -0.216667 0.375278 0.166667 -0.306413 0.306413 0.166667 -0.375278 0.216667 0.166667 -0.418568 0.112155 0.166667 -0.433333 1.68746e-007 0.166667 -0.418568 -0.112155 0.166667 -0.375278 -0.216666 0.166667 -0.306413 -0.306413 0.166667 -0.216667 -0.375278 0.166667 -0.112155 -0.418568 0.166667 -2.01462e-007 -0.433333 0.166667 0.112155 -0.418568 0.166667 0.216666 -0.375278 0.166667 0.306413 -0.306413 0.166667 0.375278 -0.216667 0.166667 0.418568 -0.112155 0.166667 0.433333 -6.06974e-007 0.166667 0.4 0 0.5 0.38637 0.103528 0.5 0.34641 0.2 0.5 0.282843 0.282843 0.5 0.2 0.34641 0.5 0.103528 0.38637 0.5 3.01992e-008 0.4 0.5 -0.103528 0.38637 0.5 -0.2 0.34641 0.5 -0.282843 0.282843 0.5 -0.34641 0.2 0.5 -0.38637 0.103528 0.5 -0.4 1.55766e-007 0.5 -0.38637 -0.103527 0.5 -0.34641 -0.2 0.5 -0.282843 -0.282843 0.5 -0.2 -0.34641 0.5 -0.103528 -0.38637 0.5 -1.85965e-007 -0.4 0.5 0.103527 -0.38637 0.5 0.2 -0.34641 0.5 0.282843 -0.282843 0.5 0.34641 -0.2 0.5 0.38637 -0.103528 0.5 0.4 -5.60284e-007 0.5 0.5 0 -0.5 0.482963 0.12941 -0.5 0.433013 0.25 -0.5 0.353553 0.353553 -0.5 0.25 0.433013 -0.5 0.12941 0.482963 -0.5 3.7749e-008 0.5 -0.5 -0.129409 0.482963 -0.5 -0.25 0.433013 -0.5 -0.353553 0.353553 -0.5 -0.433013 0.25 -0.5 -0.482963 0.12941 -0.5 -0.5 1.94707e-007 -0.5 -0.482963 -0.129409 -0.5 -0.433013 -0.25 -0.5 -0.353554 -0.353553 -0.5 -0.25 -0.433013 -0.5 -0.12941 -0.482963 -0.5 -2.32456e-007 -0.5 -0.5 0.129409 -0.482963 -0.5 0.25 -0.433013 -0.5 0.353553 -0.353554 -0.5 0.433013 -0.25 -0.5 0.482963 -0.12941 -0.5 0.5 -7.00355e-007 -0.5 0 0 -0.5</float_array>
					<technique_common>
						<accessor count="152" source="#prim1-positions-array" stride="3">
							<param name="X" type="float"/>
							<param name="Y" type="float"/>
							<param name="Z" type="float"/>
						</accessor>
					</technique_common>
				</source>
				<source id="prim1-normals">
					<float_array id="prim1-normals-array" count="456">0 0 1.00009 0 0 1.00009 0 0 1.00009 0 0 1.00009 0 0 1.00009 0 0 1.00009 0 0 1.00009 0 0 1.00009 0 0 1.00009 0 0 1.00009 0 0 1.00009 0 0 1.00009 0 0 1.00009 0 0 1.00009 0 0 1.00009 0 0 1.00009 0 0 1.00009 0 0 1.00009 0 0 1.00009 0 0 1.00009 0 0 1.00009 0 0 1.00009 0 0 1.00009 0 0 1.00009 0 0 1.00009 0 0 1.00009 0.994228 0.0416476 0.0994228 0.949572 0.297554 0.0994229 0.840204 0.533182 0.0994229 0.673577 0.732476 0.0994229 0.461047 0.881851 0.0994229 0.217097 0.971131 0.0994229 -0.0416476 0.994229 0.0994229 -0.297554 0.949572 0.0994229 -0.533182 0.840204 0.0994229 -0.732475 0.673577 0.0994229 -0.881851 0.461047 0.0994229 -0.971131 0.217097 0.0994229 -0.994229 -0.0416474 0.0994229 -0.949572 -0.297554 0.0994229 -0.840204 -0.533182 0.0994229 -0.673577 -0.732476 0.0994229 -0.461047 -0.881851 0.0994229 -0.217097 -0.97113 0.0994229 0.0416473 -0.994229 0.0994229 0.297553 -0.949572 0.0994229 0.533182 -0.840204 0.0994229 0.732475 -0.673577 0.0994229 0.881851 -0.461047 0.0994229 0.971129 -0.217097 0.0994227 0.994228 0.0416476 0.0994228 0.9944 -0.0359151 0.09944 0.969814 0.222679 0.0994402 0.879135 0.466098 0.0994402 0.728544 0.677753 0.0994402 0.528304 0.84322 0.0994402 0.292061 0.951223 0.0994402 0.035915 0.994402 0.0994402 -0.222679 0.969814 0.0994402 -0.466098 0.879135 0.0994402 -0.677752 0.728544 0.0994402 -0.84322 0.528304 0.0994402 -0.951223 0.292061 0.0994402 -0.994402 0.0359152 0.0994402 -0.969814 -0.222679 0.0994402 -0.879135 -0.466097 0.0994402 -0.728544 -0.677752 0.0994402 -0.528305 -0.84322 0.0994402 -0.292062 -0.951223 0.0994402 -0.0359154 -0.994402 0.0994402 0.222678 -0.969814 0.0994402 0.466097 -0.879135 0.0994402 0.677752 -0.728544 0.0994402 0.843219 -0.528305 0.0994402 0.951222 -0.292062 0.0994401 0.9944 -0.0359151 0.09944 0.994476 -0.0361607 0.0994477 0.969951 0.222462 0.0994478 0.879323 0.465923 0.0994478 0.728771 0.677633 0.0994478 0.528555 0.843163 0.0994478 0.292318 0.951232 0.0994478 0.0361605 0.994477 0.0994478 -0.222461 0.96995 0.0994478 -0.465923 0.879323 0.0994478 -0.677632 0.728771 0.0994478 -0.843162 0.528555 0.0994478 -0.951232 0.292318 0.0994478 -0.994477 0.0361607 0.0994478 -0.96995 -0.222461 0.0994478 -0.879323 -0.465922 0.0994478 -0.728771 -0.677632 0.0994478 -0.528555 -0.843163 0.0994478 -0.292318 -0.951232 0.0994478 -0.0361608 -0.994477 0.0994478 0.222461 -0.96995 0.0994478 0.465922 -0.879323 0.0994478 0.677632 -0.728771 0.0994478 0.843162 -0.528555 0.0994478 0.951231 -0.292318 0.0994477 0.994476 -0.0361607 0.0994477 0.991952 -0.0800413 0.0991952 0.97887 0.179423 0.0991954 0.899078 0.42666 0.0991954 0.758015 0.64482 0.0991954 0.565295 0.819037 0.0991954 0.33405 0.937438 0.0991954 0.0800411 0.991954 0.0991954 -0.179423 0.97887 0.0991954 -0.426659 0.899078 0.0991954 -0.64482 0.758015 0.0991954 -0.819037 0.565295 0.0991955 -0.937438 0.334051 0.0991954 -0.991954 0.0800413 0.0991954 -0.97887 -0.179423 0.0991954 -0.899078 -0.426659 0.0991954 -0.758015 -0.64482 0.0991954 -0.565295 -0.819037 0.0991955 -0.334051 -0.937438 0.0991954 -0.0800416 -0.991954 0.0991954 0.179423 -0.97887 0.0991954 0.426659 -0.899078 0.0991954 0.644819 -0.758015 0.0991954 0.819037 -0.565295 0.0991954 0.937437 -0.334051 0.0991953 0.991952 -0.0800413 0.0991952 0 0 -1.00002 0 0 -1.00002 0 0 -1.00002 0 0 -1.00002 0 0 -1.00002 0 0 -1.00002 0 0 -1.00002 0 0 -1.00002 0 0 -1.00002 0 0 -1.00002 0 0 -1.00002 0 0 -1.00002 0 0 -1.00002 0 0 -1.00002 0 0 -1.00002 0 0 -1.00002 0 0 -1.00002 0 0 -1.00002 0 0 -1.00002 0 0 -1.00002 0 0 -1.00002 0 0 -1.00002 0 0 -1.00002 0 0 -1.00002 0 0 -1.00002 0 0 -1.00002</float_array>
					<technique_common>
						<accessor count="152" source="#prim1-normals-array" stride="3">
							<param name="X" type="float"/>
							<param name="Y" type="float"/>
							<param name="Z" type="float"/>
						</accessor>
					</technique_common>
				</source>
				<source id="prim1-map0">
					<float_array id="prim1-map0-array" count="304">1 0.5 0.982963 0.62941 0.933013 0.75 0.853553 0.853553 0.75 0.933013 0.62941 0.982963 0.5 1 0.370591 0.982963 0.25 0.933013 0.146447 0.853553 0.0669874 0.75 0.0170371 0.62941 0 0.5 0.017037 0.370591 0.0669872 0.25 0.146446 0.146447 0.25 0.0669874 0.37059 0.0170372 0.5 0 0.629409 0.017037 0.75 0.0669872 0.853553 0.146446 0.933013 0.25 0.982963 0.37059 1 0.499999 0.5 0.5 -1.5 0 -1.33333 0 -1.16667 0 -1 0 -0.833333 0 -0.666667 0 -0.5 0 -0.333333 0 -0.166667 0 -1.19209e-007 0 0.166667 0 0.333333 0 0.5 0 0.666667 0 0.833333 0 1 0 1.16667 0 1.33333 0 1.5 0 1.66667 0 1.83333 0 2 0 2.16667 0 2.33333 0 2.5 0 -1.5 0.333333 -1.33333 0.333333 -1.16667 0.333333 -1 0.333333 -0.833333 0.333333 -0.666667 0.333333 -0.5 0.333333 -0.333333 0.333333 -0.166667 0.333333 -1.19209e-007 0.333333 0.166667 0.333333 0.333333 0.333333 0.5 0.333333 0.666667 0.333333 0.833333 0.333333 1 0.333333 1.16667 0.333333 1.33333 0.333333 1.5 0.333333 1.66667 0.333333 1.83333 0.333333 2 0.333333 2.16667 0.333333 2.33333 0.333333 2.5 0.333333 -1.5 0.666667 -1.33333 0.666667 -1.16667 0.666667 -1 0.666667 -0.833333 0.666667 -0.666667 0.666667 -0.5 0.666667 -0.333333 0.666667 -0.166667 0.666667 -1.19209e-007 0.666667 0.166667 0.666667 0.333333 0.666667 0.5 0.666667 0.666667 0.666667 0.833333 0.666667 1 0.666667 1.16667 0.666667 1.33333 0.666667 1.5 0.666667 1.66667 0.666667 1.83333 0.666667 2 0.666667 2.16667 0.666667 2.33333 0.666667 2.5 0.666667 -1.5 1 -1.33333 1 -1.16667 1 -1 1 -0.833333 1 -0.666667 1 -0.5 1 -0.333333 1 -0.166667 1 -1.19209e-007 1 0.166667 1 0.333333 1 0.5 1 0.666667 1 0.833333 1 1 1 1.16667 1 1.33333 1 1.5 1 1.66667 1 1.83333 1 2 1 2.16667 1 2.33333 1 2.5 1 1 0.5 0.982963 0.37059 0.933013 0.25 0.853553 0.146447 0.75 0.0669873 0.62941 0.0170371 0.5 0 0.370591 0.0170371 0.25 0.0669872 0.146447 0.146447 0.0669874 0.25 0.0170371 0.37059 0 0.5 0.017037 0.629409 0.0669872 0.75 0.146446 0.853553 0.25 0.933013 0.37059 0.982963 0.5 1 0.629409 0.982963 0.75 0.933013 0.853553 0.853554 0.933013 0.75 0.982963 0.62941 1 0.500001 0.5 0.5</float_array>
					<technique_common>
						<accessor count="152" source="#prim1-map0-array" stride="2">
							<param name="S" type="float"/>
							<param name="T" type="float"/>
						</accessor>
					</technique_common>
				</source>
				<vertices id="prim1-vertices">
					<input semantic="POSITION" source="#prim1-positions"/>
				</vertices>
				<polylist count="24" material="Material3-material">
					<input offset="0" semantic="VERTEX" source="#prim1-vertices" set="0"/>
					<input offset="0" semantic="NORMAL" source="#prim1-normals" set="0"/>
					<input offset="0" semantic="TEXCOORD" source="#prim1-map0" set="0"/>
					<vcount>3 3 3 3 3 3 3 3 3 3 3 3 3 3 3 3 3 3 3 3 3 3 3 3</vcount>
					<p>25 0 1 25 1 2 25 2 3 25 3 4 25 4 5 25 5 6 25 6 7 25 7 8 25 8 9 25 9 10 25 10 11 25 11 12 25 12 13 25 13 14 25 14 15 25 15 16 25 16 17 25 17 18 25 18 19 25 19 20 25 20 21 25 21 22 25 22 23 25 23 24</p>
				</polylist>
				<polylist count="144" material="Material1-material">
					<input offset="0" semantic="VERTEX" source="#prim1-vertices" set="0"/>
					<input offset="0" semantic="NORMAL" source="#prim1-normals" set="0"/>
					<input offset="0" semantic="TEXCOORD" source="#prim1-map0" set="0"/>
					<vcount>3 3 3 3 3 3 3 3 3 3 3 3 3 3 3 3 3 3 3 3 3 3 3 3 3 3 3 3 3 3 3 3 3 3 3 3 3 3 3 3 3 3 3 3 3 3 3 3 3 3 3 3 3 3 3 3 3 3 3 3 3 3 3 3 3 3 3 3 3 3 3 3 3 3 3 3 3 3 3 3 3 3 3 3 3 3 3 3 3 3 3 3 3 3 3 3 3 3 3 3 3 3 3 3 3 3 3 3 3 3 3 3 3 3 3 3 3 3 3 3 3 3 3 3 3 3 3 3 3 3 3 3 3 3 3 3 3 3 3 3 3 3 3 3</vcount>
					<p>26 52 51 26 27 52 27 53 52 27 28 53 28 54 53 28 29 54 29 55 54 29 30 55 30 56 55 30 31 56 31 57 56 31 32 57 32 58 57 32 33 58 33 59 58 33 34 59 34 60 59 34 35 60 35 61 60 35 36 61 36 62 61 36 37 62 37 63 62 37 38 63 38 64 63 38 39 64 39 65 64 39 40 65 40 66 65 40 41 66 41 67 66 41 42 67 42 68 67 42 43 68 43 69 68 43 44 69 44 70 69 44 45 70 45 71 70 45 46 71 46 72 71 46 47 72 47 73 72 47 48 73 48 74 73 48 49 74 49 75 74 49 50 75 51 77 76 51 52 77 52 78 77 52 53 78 53 79 78 53 54 79 54 80 79 54 55 80 55 81 80 55 56 81 56 82 81 56 57 82 57 83 82 57 58 83 58 84 83 58 59 84 59 85 84 59 60 85 60 86 85 60 61 86 61 87 86 61 62 87 62 88 87 62 63 88 63 89 88 63 64 89 64 90 89 64 65 90 65 91 90 65 66 91 66 92 91 66 67 92 67 93 92 67 68 93 68 94 93 68 69 94 69 95 94 69 70 95 70 96 95 70 71 96 71 97 96 71 72 97 72 98 97 72 73 98 73 99 98 73 74 99 74 100 99 74 75 100 76 102 101 76 77 102 77 103 102 77 78 103 78 104 103 78 79 104 79 105 104 79 80 105 80 106 105 80 81 106 81 107 106 81 82 107 82 108 107 82 83 108 83 109 108 83 84 109 84 110 109 84 85 110 85 111 110 85 86 111 86 112 111 86 87 112 87 113 112 87 88 113 88 114 113 88 89 114 89 115 114 89 90 115 90 116 115 90 91 116 91 117 116 91 92 117 92 118 117 92 93 118 93 119 118 93 94 119 94 120 119 94 95 120 95 121 120 95 96 121 96 122 121 96 97 122 97 123 122 97 98 123 98 124 123 98 99 124 99 125 124 99 100 125</p>
				</polylist>
				<polylist count="24" material="Material2-material">
					<input offset="0" semantic="VERTEX" source="#prim1-vertices" set="0"/>
					<input offset="0" semantic="NORMAL" source="#prim1-normals" set="0"/>
					<input offset="0" semantic="TEXCOORD" source="#prim1-map0" set="0"/>
					<vcount>3 3 3 3 3 3 3 3 3 3 3 3 3 3 3 3 3 3 3 3 3 3 3 3</vcount>
					<p>151 127 126 151 128 127 151 129 128 151 130 129 151 131 130 151 132 131 151 133 132 151 134 133 151 135 134 151 136 135 151 137 136 151 138 137 151 139 138 151 140 139 151 141 140 151 142 141 151 143 142 151 144 143 151 145 144 151 146 145 151 147 146 151 148 147 151 149 148 151 150 149</p>
				</polylist>
			</mesh>
		</geometry>
		<geometry id="prim2-mesh">
			<mesh>
				<source id="prim2-positions">
					<float_array id="prim2-positions-array" count="246">0.4 0 0.5 0.365418 0.162695 0.5 0.267652 0.297258 0.5 0.123607 0.380423 0.5 -0.0418114 0.397809 0.5 -0.2 0.34641 0.5 -0.323607 0.235114 0.5 -0.391259 0.0831645 0.5 -0.391259 -0.0831648 0.5 -0.323607 -0.235114 0.5 -0.2 -0.34641 0.5 -0.0418111 -0.397809 0.5 0.123607 -0.380423 0.5 0.267652 -0.297258 0.5 0.365418 -0.162694 0.5 0.4 2.50339e-007 0.5 0.00437047 -1.49012e-008 0.5 0.5 0 -0.5 0.456773 0.203368 -0.5 0.334565 0.371572 -0.5 0.154508 0.475528 -0.5 -0.0522643 0.497261 -0.5 -0.25 0.433013 -0.5 -0.404509 0.293893 -0.5 -0.489074 0.103956 -0.5 -0.489074 -0.103956 -0.5 -0.404508 -0.293893 -0.5 -0.25 -0.433013 -0.5 -0.0522639 -0.497261 -0.5 0.154509 -0.475528 -0.5 0.334566 -0.371572 -0.5 0.456773 -0.203368 -0.5 0.5 3.12924e-007 -0.5 0.45 0 0 0.411095 0.183031 0 0.301109 0.334415 0 0.139058 0.427975 0 -0.0470379 0.447535 0 -0.225 0.389711 0 -0.364058 0.264503 0 -0.440166 0.0935601 0 -0.440166 -0.0935604 0 -0.364058 -0.264503 0 -0.225 -0.389712 0 -0.0470375 -0.447535 0 0.139058 -0.427975 0 0.301109 -0.334415 0 0.411096 -0.183031 0 0.45 2.81632e-007 0 0.4 0 0.5 0.365418 0.162695 0.5 0.267652 0.297258 0.5 0.123607 0.380423 0.5 -0.0418114 0.397809 0.5 -0.2 0.34641 0.5 -0.323607 0.235114 0.5 -0.391259 0.0831645 0.5 -0.391259 -0.0831648 0.5 -0.323607 -0.235114 0.5 -0.2 -0.34641 0.5 -0.0418111 -0.397809 0.5 0.123607 -0.380423 0.5 0.267652 -0.297258 0.5 0.365418 -0.162694 0.5 0.4 2.50339e-007 0.5 0.5 0 -0.5 0.456773 0.203368 -0.5 0.334565 0.371572 -0.5 0.154508 0.475528 -0.5 -0.0522643 0.497261 -0.5 -0.25 0.433013 -0.5 -0.404509 0.293893 -0.5 -0.489074 0.103956 -0.5 -0.489074 -0.103956 -0.5 -0.404508 -0.293893 -0.5 -0.25 -0.433013 -0.5 -0.0522639 -0.497261 -0.5 0.154509 -0.475528 -0.5 0.334566 -0.371572 -0.5 0.456773 -0.203368 -0.5 0.5 3.12924e-007 -0.5 0.00546308 -2.98023e-008 -0.5</float_array>
					<technique_common>
						<accessor count="82" source="#prim2-positions-array" stride="3">
							<param name="X" type="float"/>
							<param name="Y" type="float"/>
							<param name="Z" type="float"/>
						</accessor>
					</technique_common>
				</source>
				<source id="prim2-normals">
					<float_array id="prim2-normals-array" count="246">0 0 1.00007 0 0 1.00007 0 0 1.00007 0 0 1.00007 0 0 1.00007 0 0 1.00007 0 0 1.00007 0 0 1.00007 0 0 1.00007 0 0 1.00007 0 0 1.00007 0 0 1.00007 0 0 1.00007 0 0 1.00007 0 0 1.00007 0 0 1.00007 0 0 1.00007 0.992786 0.0654902 0.0992786 0.880318 0.463631 0.0992786 0.615635 0.781605 0.0992786 0.244503 0.964433 0.0992786 -0.168906 0.980502 0.0992786 -0.553109 0.827033 0.0992787 -0.841675 0.530562 0.0992786 -0.984707 0.142353 0.0992786 -0.957475 -0.270471 0.0992786 -0.764687 -0.636528 0.0992786 -0.439677 -0.892523 0.0992786 -0.0386425 -0.994193 0.0992786 0.369073 -0.923958 0.0992786 0.712972 -0.693962 0.0992786 0.933592 -0.343974 0.0992786 0.992786 0.0654902 0.0992786 0.993471 -0.0607468 0.0993472 0.932289 0.348586 0.0993471 0.709906 0.697645 0.0993471 0.364773 0.926075 0.0993471 -0.0434318 0.994379 0.0993471 -0.444127 0.890745 0.0993472 -0.768029 0.633093 0.0993472 -0.959131 0.265974 0.0993471 -0.984391 -0.147135 0.0993471 -0.839441 -0.534803 0.0993472 -0.549344 -0.829998 0.0993472 -0.16426 -0.981679 0.0993472 0.249226 -0.963619 0.0993471 0.619618 -0.77894 0.0993471 0.882873 -0.459576 0.0993472 0.993471 -0.0607468 0.0993472 0.986773 -0.129842 0.0986774 0.954274 0.28274 0.0986774 0.756772 0.646434 0.0986774 0.428417 0.898354 0.0986774 0.0259849 0.99494 0.0986774 -0.38094 0.919492 0.0986774 -0.721997 0.685055 0.0986773 -0.938214 0.332166 0.0986774 -0.992206 -0.0781572 0.0986773 -0.874636 -0.474967 0.0986773 -0.605833 -0.78965 0.0986774 -0.232276 -0.967796 0.0986774 0.181443 -0.978601 0.0986774 0.563789 -0.820197 0.0986773 0.848651 -0.519973 0.0986773 0.986773 -0.129842 0.0986774 0 0 -1.00004 0 0 -1.00004 0 0 -1.00004 0 0 -1.00004 0 0 -1.00004 0 0 -1.00004 0 0 -1.00004 0 0 -1.00004 0 0 -1.00004 0 0 -1.00004 0 0 -1.00004 0 0 -1.00004 0 0 -1.00004 0 0 -1.00004 0 0 -1.00004 0 0 -1.00004 0 0 -1.00004</float_array>
					<technique_common>
						<accessor count="82" source="#prim2-normals-array" stride="3">
							<param name="X" type="float"/>
							<param name="Y" type="float"/>
							<param name="Z" type="float"/>
						</accessor>
					</technique_common>
				</source>
				<source id="prim2-map0">
					<float_array id="prim2-map0-array" count="164">1 0.5 0.956773 0.703368 0.834565 0.871572 0.654508 0.975528 0.447736 0.997261 0.25 0.933013 0.0954914 0.793893 0.0109262 0.603956 0.0109262 0.396044 0.0954916 0.206107 0.25 0.0669872 0.447736 0.00273901 0.654509 0.0244718 0.834566 0.128428 0.956773 0.296632 1 0.5 0.505463 0.5 -1.5 0 -1.23333 0 -0.966667 0 -0.7 0 -0.433333 0 -0.166667 0 0.1 0 0.366667 0 0.633333 0 0.9 0 1.16667 0 1.43333 0 1.7 0 1.96667 0 2.23333 0 2.5 0 -1.5 0.5 -1.23333 0.5 -0.966667 0.5 -0.7 0.5 -0.433333 0.5 -0.166667 0.5 0.1 0.5 0.366667 0.5 0.633333 0.5 0.9 0.5 1.16667 0.5 1.43333 0.5 1.7 0.5 1.96667 0.5 2.23333 0.5 2.5 0.5 -1.5 1 -1.23333 1 -0.966667 1 -0.7 1 -0.433333 1 -0.166667 1 0.1 1 0.366667 1 0.633333 1 0.9 1 1.16667 1 1.43333 1 1.7 1 1.96667 1 2.23333 1 2.5 1 1 0.5 0.956773 0.296632 0.834565 0.128428 0.654508 0.0244717 0.447736 0.00273907 0.25 0.0669874 0.0954914 0.206107 0.0109262 0.396044 0.0109262 0.603956 0.0954916 0.793893 0.25 0.933013 0.447736 0.997261 0.654509 0.975528 0.834566 0.871572 0.956773 0.703368 1 0.5 0.505463 0.5</float_array>
					<technique_common>
						<accessor count="82" source="#prim2-map0-array" stride="2">
							<param name="S" type="float"/>
							<param name="T" type="float"/>
						</accessor>
					</technique_common>
				</source>
				<vertices id="prim2-vertices">
					<input semantic="POSITION" source="#prim2-positions"/>
				</vertices>
				<polylist count="15" material="Material4-material">
					<input offset="0" semantic="VERTEX" source="#prim2-vertices" set="0"/>
					<input offset="0" semantic="NORMAL" source="#prim2-normals" set="0"/>
					<input offset="0" semantic="TEXCOORD" source="#prim2-map0" set="0"/>
					<vcount>3 3 3 3 3 3 3 3 3 3 3 3 3 3 3</vcount>
					<p>16 0 1 16 1 2 16 2 3 16 3 4 16 4 5 16 5 6 16 6 7 16 7 8 16 8 9 16 9 10 16 10 11 16 11 12 16 12 13 16 13 14 16 14 15</p>
				</polylist>
				<polylist count="60" material="Material1-material">
					<input offset="0" semantic="VERTEX" source="#prim2-vertices" set="0"/>
					<input offset="0" semantic="NORMAL" source="#prim2-normals" set="0"/>
					<input offset="0" semantic="TEXCOORD" source="#prim2-map0" set="0"/>
					<vcount>3 3 3 3 3 3 3 3 3 3 3 3 3 3 3 3 3 3 3 3 3 3 3 3 3 3 3 3 3 3 3 3 3 3 3 3 3 3 3 3 3 3 3 3 3 3 3 3 3 3 3 3 3 3 3 3 3 3 3 3</vcount>
					<p>17 34 33 17 18 34 18 35 34 18 19 35 19 36 35 19 20 36 20 37 36 20 21 37 21 38 37 21 22 38 22 39 38 22 23 39 23 40 39 23 24 40 24 41 40 24 25 41 25 42 41 25 26 42 26 43 42 26 27 43 27 44 43 27 28 44 28 45 44 28 29 45 29 46 45 29 30 46 30 47 46 30 31 47 31 48 47 31 32 48 33 50 49 33 34 50 34 51 50 34 35 51 35 52 51 35 36 52 36 53 52 36 37 53 37 54 53 37 38 54 38 55 54 38 39 55 39 56 55 39 40 56 40 57 56 40 41 57 41 58 57 41 42 58 42 59 58 42 43 59 43 60 59 43 44 60 44 61 60 44 45 61 45 62 61 45 46 62 46 63 62 46 47 63 47 64 63 47 48 64</p>
				</polylist>
				<polylist count="15" material="Material2-material">
					<input offset="0" semantic="VERTEX" source="#prim2-vertices" set="0"/>
					<input offset="0" semantic="NORMAL" source="#prim2-normals" set="0"/>
					<input offset="0" semantic="TEXCOORD" source="#prim2-map0" set="0"/>
					<vcount>3 3 3 3 3 3 3 3 3 3 3 3 3 3 3</vcount>
					<p>81 66 65 81 67 66 81 68 67 81 69 68 81 70 69 81 71 70 81 72 71 81 73 72 81 74 73 81 75 74 81 76 75 81 77 76 81 78 77 81 79 78 81 80 79</p>
				</polylist>
			</mesh>
		</geometry>
		<geometry id="prim3-mesh">
			<mesh>
				<source id="prim3-positions">
					<float_array id="prim3-positions-array" count="246">0.4 0 0.5 0.365418 0.162695 0.5 0.267652 0.297258 0.5 0.123607 0.380423 0.5 -0.0418114 0.397809 0.5 -0.2 0.34641 0.5 -0.323607 0.235114 0.5 -0.391259 0.0831645 0.5 -0.391259 -0.0831648 0.5 -0.323607 -0.235114 0.5 -0.2 -0.34641 0.5 -0.0418111 -0.397809 0.5 0.123607 -0.380423 0.5 0.267652 -0.297258 0.5 0.365418 -0.162694 0.5 0.4 2.50339e-007 0.5 0.00437047 -1.49012e-008 0.5 0.5 0 -0.5 0.456773 0.203368 -0.5 0.334565 0.371572 -0.5 0.154508 0.475528 -0.5 -0.0522643 0.497261 -0.5 -0.25 0.433013 -0.5 -0.404509 0.293893 -0.5 -0.489074 0.103956 -0.5 -0.489074 -0.103956 -0.5 -0.404508 -0.293893 -0.5 -0.25 -0.433013 -0.5 -0.0522639 -0.497261 -0.5 0.154509 -0.475528 -0.5 0.334566 -0.371572 -0.5 0.456773 -0.203368 -0.5 0.5 3.12924e-007 -0.5 0.45 0 0 0.411095 0.183031 0 0.301109 0.334415 0 0.139058 0.427975 0 -0.0470379 0.447535 0 -0.225 0.389711 0 -0.364058 0.264503 0 -0.440166 0.0935601 0 -0.440166 -0.0935604 0 -0.364058 -0.264503 0 -0.225 -0.389712 0 -0.0470375 -0.447535 0 0.139058 -0.427975 0 0.301109 -0.334415 0 0.411096 -0.183031 0 0.45 2.81632e-007 0 0.4 0 0.5 0.365418 0.162695 0.5 0.267652 0.297258 0.5 0.123607 0.380423 0.5 -0.0418114 0.397809 0.5 -0.2 0.34641 0.5 -0.323607 0.235114 0.5 -0.391259 0.0831645 0.5 -0.391259 -0.0831648 0.5 -0.323607 -0.235114 0.5 -0.2 -0.34641 0.5 -0.0418111 -0.397809 0.5 0.123607 -0.380423 0.5 0.267652 -0.297258 0.5 0.365418 -0.162694 0.5 0.4 2.50339e-007 0.5 0.5 0 -0.5 0.456773 0.203368 -0.5 0.334565 0.371572 -0.5 0.154508 0.475528 -0.5 -0.0522643 0.497261 -0.5 -0.25 0.433013 -0.5 -0.404509 0.293893 -0.5 -0.489074 0.103956 -0.5 -0.489074 -0.103956 -0.5 -0.404508 -0.293893 -0.5 -0.25 -0.433013 -0.5 -0.0522639 -0.497261 -0.5 0.154509 -0.475528 -0.5 0.334566 -0.371572 -0.5 0.456773 -0.203368 -0.5 0.5 3.12924e-007 -0.5 0.00546308 -2.98023e-008 -0.5</float_array>
					<technique_common>
						<accessor count="82" source="#prim3-positions-array" stride="3">
							<param name="X" type="float"/>
							<param name="Y" type="float"/>
							<param name="Z" type="float"/>
						</accessor>
					</technique_common>
				</source>
				<source id="prim3-normals">
					<float_array id="prim3-normals-array" count="246">0 0 1.00007 0 0 1.00007 0 0 1.00007 0 0 1.00007 0 0 1.00007 0 0 1.00007 0 0 1.00007 0 0 1.00007 0 0 1.00007 0 0 1.00007 0 0 1.00007 0 0 1.00007 0 0 1.00007 0 0 1.00007 0 0 1.00007 0 0 1.00007 0 0 1.00007 0.992786 0.0654902 0.0992786 0.880318 0.463631 0.0992786 0.615635 0.781605 0.0992786 0.244503 0.964433 0.0992786 -0.168906 0.980502 0.0992786 -0.553109 0.827033 0.0992787 -0.841675 0.530562 0.0992786 -0.984707 0.142353 0.0992786 -0.957475 -0.270471 0.0992786 -0.764687 -0.636528 0.0992786 -0.439677 -0.892523 0.0992786 -0.0386425 -0.994193 0.0992786 0.369073 -0.923958 0.0992786 0.712972 -0.693962 0.0992786 0.933592 -0.343974 0.0992786 0.992786 0.0654902 0.0992786 0.993471 -0.0607468 0.0993472 0.932289 0.348586 0.0993471 0.709906 0.697645 0.0993471 0.364773 0.926075 0.0993471 -0.0434318 0.994379 0.0993471 -0.444127 0.890745 0.0993472 -0.768029 0.633093 0.0993472 -0.959131 0.265974 0.0993471 -0.984391 -0.147135 0.0993471 -0.839441 -0.534803 0.0993472 -0.549344 -0.829998 0.0993472 -0.16426 -0.981679 0.0993472 0.249226 -0.963619 0.0993471 0.619618 -0.77894 0.0993471 0.882873 -0.459576 0.0993472 0.993471 -0.0607468 0.0993472 0.986773 -0.129842 0.0986774 0.954274 0.28274 0.0986774 0.756772 0.646434 0.0986774 0.428417 0.898354 0.0986774 0.0259849 0.99494 0.0986774 -0.38094 0.919492 0.0986774 -0.721997 0.685055 0.0986773 -0.938214 0.332166 0.0986774 -0.992206 -0.0781572 0.0986773 -0.874636 -0.474967 0.0986773 -0.605833 -0.78965 0.0986774 -0.232276 -0.967796 0.0986774 0.181443 -0.978601 0.0986774 0.563789 -0.820197 0.0986773 0.848651 -0.519973 0.0986773 0.986773 -0.129842 0.0986774 0 0 -1.00004 0 0 -1.00004 0 0 -1.00004 0 0 -1.00004 0 0 -1.00004 0 0 -1.00004 0 0 -1.00004 0 0 -1.00004 0 0 -1.00004 0 0 -1.00004 0 0 -1.00004 0 0 -1.00004 0 0 -1.00004 0 0 -1.00004 0 0 -1.00004 0 0 -1.00004 0 0 -1.00004</float_array>
					<technique_common>
						<accessor count="82" source="#prim3-normals-array" stride="3">
							<param name="X" type="float"/>
							<param name="Y" type="float"/>
							<param name="Z" type="float"/>
						</accessor>
					</technique_common>
				</source>
				<source id="prim3-map0">
					<float_array id="prim3-map0-array" count="164">1 0.5 0.956773 0.703368 0.834565 0.871572 0.654508 0.975528 0.447736 0.997261 0.25 0.933013 0.0954914 0.793893 0.0109262 0.603956 0.0109262 0.396044 0.0954916 0.206107 0.25 0.0669872 0.447736 0.00273901 0.654509 0.0244718 0.834566 0.128428 0.956773 0.296632 1 0.5 0.505463 0.5 -1.5 0 -1.23333 0 -0.966667 0 -0.7 0 -0.433333 0 -0.166667 0 0.1 0 0.366667 0 0.633333 0 0.9 0 1.16667 0 1.43333 0 1.7 0 1.96667 0 2.23333 0 2.5 0 -1.5 0.5 -1.23333 0.5 -0.966667 0.5 -0.7 0.5 -0.433333 0.5 -0.166667 0.5 0.1 0.5 0.366667 0.5 0.633333 0.5 0.9 0.5 1.16667 0.5 1.43333 0.5 1.7 0.5 1.96667 0.5 2.23333 0.5 2.5 0.5 -1.5 1 -1.23333 1 -0.966667 1 -0.7 1 -0.433333 1 -0.166667 1 0.1 1 0.366667 1 0.633333 1 0.9 1 1.16667 1 1.43333 1 1.7 1 1.96667 1 2.23333 1 2.5 1 1 0.5 0.956773 0.296632 0.834565 0.128428 0.654508 0.0244717 0.447736 0.00273907 0.25 0.0669874 0.0954914 0.206107 0.0109262 0.396044 0.0109262 0.603956 0.0954916 0.793893 0.25 0.933013 0.447736 0.997261 0.654509 0.975528 0.834566 0.871572 0.956773 0.703368 1 0.5 0.505463 0.5</float_array>
					<technique_common>
						<accessor count="82" source="#prim3-map0-array" stride="2">
							<param name="S" type="float"/>
							<param name="T" type="float"/>
						</accessor>
					</technique_common>
				</source>
				<vertices id="prim3-vertices">
					<input semantic="POSITION" source="#prim3-positions"/>
				</vertices>
				<polylist count="15" material="Material5-material">
					<input offset="0" semantic="VERTEX" source="#prim3-vertices" set="0"/>
					<input offset="0" semantic="NORMAL" source="#prim3-normals" set="0"/>
					<input offset="0" semantic="TEXCOORD" source="#prim3-map0" set="0"/>
					<vcount>3 3 3 3 3 3 3 3 3 3 3 3 3 3 3</vcount>
					<p>16 0 1 16 1 2 16 2 3 16 3 4 16 4 5 16 5 6 16 6 7 16 7 8 16 8 9 16 9 10 16 10 11 16 11 12 16 12 13 16 13 14 16 14 15</p>
				</polylist>
				<polylist count="60" material="Material1-material">
					<input offset="0" semantic="VERTEX" source="#prim3-vertices" set="0"/>
					<input offset="0" semantic="NORMAL" source="#prim3-normals" set="0"/>
					<input offset="0" semantic="TEXCOORD" source="#prim3-map0" set="0"/>
					<vcount>3 3 3 3 3 3 3 3 3 3 3 3 3 3 3 3 3 3 3 3 3 3 3 3 3 3 3 3 3 3 3 3 3 3 3 3 3 3 3 3 3 3 3 3 3 3 3 3 3 3 3 3 3 3 3 3 3 3 3 3</vcount>
					<p>17 34 33 17 18 34 18 35 34 18 19 35 19 36 35 19 20 36 20 37 36 20 21 37 21 38 37 21 22 38 22 39 38 22 23 39 23 40 39 23 24 40 24 41 40 24 25 41 25 42 41 25 26 42 26 43 42 26 27 43 27 44 43 27 28 44 28 45 44 28 29 45 29 46 45 29 30 46 30 47 46 30 31 47 31 48 47 31 32 48 33 50 49 33 34 50 34 51 50 34 35 51 35 52 51 35 36 52 36 53 52 36 37 53 37 54 53 37 38 54 38 55 54 38 39 55 39 56 55 39 40 56 40 57 56 40 41 57 41 58 57 41 42 58 42 59 58 42 43 59 43 60 59 43 44 60 44 61 60 44 45 61 45 62 61 45 46 62 46 63 62 46 47 63 47 64 63 47 48 64</p>
				</polylist>
				<polylist count="15" material="Material2-material">
					<input offset="0" semantic="VERTEX" source="#prim3-vertices" set="0"/>
					<input offset="0" semantic="NORMAL" source="#prim3-normals" set="0"/>
					<input offset="0" semantic="TEXCOORD" source="#prim3-map0" set="0"/>
					<vcount>3 3 3 3 3 3 3 3 3 3 3 3 3 3 3</vcount>
					<p>81 66 65 81 67 66 81 68 67 81 69 68 81 70 69 81 71 70 81 72 71 81 73 72 81 74 73 81 75 74 81 76 75 81 77 76 81 78 77 81 79 78 81 80 79</p>
				</polylist>
			</mesh>
		</geometry>
		<geometry id="prim4-mesh">
			<mesh>
				<source id="prim4-positions">
					<float_array id="prim4-positions-array" count="456">0.5 0 0.5 0.482963 0.12941 0.5 0.433013 0.25 0.5 0.353553 0.353553 0.5 0.25 0.433013 0.5 0.12941 0.482963 0.5 3.7749e-008 0.5 0.5 -0.129409 0.482963 0.5 -0.25 0.433013 0.5 -0.353553 0.353553 0.5 -0.433013 0.25 0.5 -0.482963 0.12941 0.5 -0.5 1.94707e-007 0.5 -0.482963 -0.129409 0.5 -0.433013 -0.25 0.5 -0.353554 -0.353553 0.5 -0.25 -0.433013 0.5 -0.12941 -0.482963 0.5 -2.32456e-007 -0.5 0.5 0.129409 -0.482963 0.5 0.25 -0.433013 0.5 0.353553 -0.353554 0.5 0.433013 -0.25 0.5 0.482963 -0.12941 0.5 0.5 -7.00355e-007 0.5 0 0 0.5 0.5 0 -0.5 0.482963 0.12941 -0.5 0.433013 0.25 -0.5 0.353553 0.353553 -0.5 0.25 0.433013 -0.5 0.12941 0.482963 -0.5 3.7749e-008 0.5 -0.5 -0.129409 0.482963 -0.5 -0.25 0.433013 -0.5 -0.353553 0.353553 -0.5 -0.433013 0.25 -0.5 -0.482963 0.12941 -0.5 -0.5 1.94707e-007 -0.5 -0.482963 -0.129409 -0.5 -0.433013 -0.25 -0.5 -0.353554 -0.353553 -0.5 -0.25 -0.433013 -0.5 -0.12941 -0.482963 -0.5 -2.32456e-007 -0.5 -0.5 0.129409 -0.482963 -0.5 0.25 -0.433013 -0.5 0.353553 -0.353554 -0.5 0.433013 -0.25 -0.5 0.482963 -0.12941 -0.5 0.5 -7.00355e-007 -0.5 0.5 0 -0.166667 0.482963 0.12941 -0.166667 0.433013 0.25 -0.166667 0.353553 0.353553 -0.166667 0.25 0.433013 -0.166667 0.12941 0.482963 -0.166667 3.7749e-008 0.5 -0.166667 -0.129409 0.482963 -0.166667 -0.25 0.433013 -0.166667 -0.353553 0.353553 -0.166667 -0.433013 0.25 -0.166667 -0.482963 0.12941 -0.166667 -0.5 1.94707e-007 -0.166667 -0.482963 -0.129409 -0.166667 -0.433013 -0.25 -0.166667 -0.353554 -0.353553 -0.166667 -0.25 -0.433013 -0.166667 -0.12941 -0.482963 -0.166667 -2.32456e-007 -0.5 -0.166667 0.129409 -0.482963 -0.166667 0.25 -0.433013 -0.166667 0.353553 -0.353554 -0.166667 0.433013 -0.25 -0.166667 0.482963 -0.12941 -0.166667 0.5 -7.00355e-007 -0.166667 0.5 0 0.166667 0.482963 0.12941 0.166667 0.433013 0.25 0.166667 0.353553 0.353553 0.166667 0.25 0.433013 0.166667 0.12941 0.482963 0.166667 3.7749e-008 0.5 0.166667 -0.129409 0.482963 0.166667 -0.25 0.433013 0.166667 -0.353553 0.353553 0.166667 -0.433013 0.25 0.166667 -0.482963 0.12941 0.166667 -0.5 1.94707e-007 0.166667 -0.482963 -0.129409 0.166667 -0.433013 -0.25 0.166667 -0.353554 -0.353553 0.166667 -0.25 -0.433013 0.166667 -0.12941 -0.482963 0.166667 -2.32456e-007 -0.5 0.166667 0.129409 -0.482963 0.166667 0.25 -0.433013 0.166667 0.353553 -0.353554 0.166667 0.433013 -0.25 0.166667 0.482963 -0.12941 0.166667 0.5 -7.00355e-007 0.166667 0.5 0 0.5 0.482963 0.12941 0.5 0.433013 0.25 0.5 0.353553 0.353553 0.5 0.25 0.433013 0.5 0.12941 0.482963 0.5 3.7749e-008 0.5 0.5 -0.129409 0.482963 0.5 -0.25 0.433013 0.5 -0.353553 0.353553 0.5 -0.433013 0.25 0.5 -0.482963 0.12941 0.5 -0.5 1.94707e-007 0.5 -0.482963 -0.129409 0.5 -0.433013 -0.25 0.5 -0.353554 -0.353553 0.5 -0.25 -0.433013 0.5 -0.12941 -0.482963 0.5 -2.32456e-007 -0.5 0.5 0.129409 -0.482963 0.5 0.25 -0.433013 0.5 0.353553 -0.353554 0.5 0.433013 -0.25 0.5 0.482963 -0.12941 0.5 0.5 -7.00355e-007 0.5 0.5 0 -0.5 0.482963 0.12941 -0.5 0.433013 0.25 -0.5 0.353553 0.353553 -0.5 0.25 0.433013 -0.5 0.12941 0.482963 -0.5 3.7749e-008 0.5 -0.5 -0.129409 0.482963 -0.5 -0.25 0.433013 -0.5 -0.353553 0.353553 -0.5 -0.433013 0.25 -0.5 -0.482963 0.12941 -0.5 -0.5 1.94707e-007 -0.5 -0.482963 -0.129409 -0.5 -0.433013 -0.25 -0.5 -0.353554 -0.353553 -0.5 -0.25 -0.433013 -0.5 -0.12941 -0.482963 -0.5 -2.32456e-007 -0.5 -0.5 0.129409 -0.482963 -0.5 0.25 -0.433013 -0.5 0.353553 -0.353554 -0.5 0.433013 -0.25 -0.5 0.482963 -0.12941 -0.5 0.5 -7.00355e-007 -0.5 0 0 -0.5</float_array>
					<technique_common>
						<accessor count="152" source="#prim4-positions-array" stride="3">
							<param name="X" type="float"/>
							<param name="Y" type="float"/>
							<param name="Z" type="float"/>
						</accessor>
					</technique_common>
				</source>
				<source id="prim4-normals">
					<float_array id="prim4-normals-array" count="456">0 0 0.999773 0 0 0.999773 0 0 0.999773 0 0 0.999773 0 0 0.999773 0 0 0.999773 0 0 0.999773 0 0 0.999773 0 0 0.999773 0 0 0.999773 0 0 0.999773 0 0 0.999773 0 0 0.999773 0 0 0.999773 0 0 0.999773 0 0 0.999773 0 0 0.999773 0 0 0.999773 0 0 0.999773 0 0 0.999773 0 0 0.999773 0 0 0.999773 0 0 0.999773 0 0 0.999773 0 0 0.999773 0 0 0.999773 0.999132 0.043846 0 0.95374 0.300947 0 0.843351 0.537538 0 0.67549 0.737497 0 0.461594 0.887197 0 0.216242 0.976436 0 -0.043846 0.999132 0 -0.300946 0.95374 0 -0.537538 0.843351 0 -0.737497 0.67549 0 -0.887197 0.461595 0 -0.976436 0.216243 0 -0.999132 -0.0438457 0 -0.95374 -0.300946 0 -0.843351 -0.537537 0 -0.67549 -0.737497 0 -0.461595 -0.887197 0 -0.216243 -0.976436 0 0.0438456 -0.999132 0 0.300946 -0.95374 0 0.537537 -0.843351 0 0.737497 -0.67549 0 0.887197 -0.461595 0 0.976434 -0.216243 0 0.999132 0.043846 0 0.999384 -0.0328932 0 0.973845 0.226888 0 0.88194 0.471207 0 0.729931 0.683413 0 0.528179 0.849047 0 0.290432 0.956819 0 0.032893 0.999385 0 -0.226888 0.973845 0 -0.471206 0.881939 0 -0.683413 0.729931 0 -0.849046 0.528179 0 -0.956819 0.290432 0 -0.999385 0.0328932 0 -0.973845 -0.226887 0 -0.88194 -0.471206 0 -0.729931 -0.683413 0 -0.528179 -0.849047 0 -0.290432 -0.956818 0 -0.0328934 -0.999385 0 0.226887 -0.973845 0 0.471206 -0.88194 0 0.683413 -0.729931 0 0.849046 -0.528179 0 0.956817 -0.290433 0 0.999384 -0.0328932 0 0.999384 -0.0328932 0 0.973845 0.226888 0 0.881939 0.471207 0 0.729931 0.683413 0 0.528179 0.849047 0 0.290432 0.956819 0 0.032893 0.999385 0 -0.226888 0.973845 0 -0.471206 0.881939 0 -0.683413 0.729931 0 -0.849046 0.528179 0 -0.956819 0.290432 0 -0.999385 0.0328932 0 -0.973845 -0.226887 0 -0.88194 -0.471206 0 -0.729931 -0.683413 0 -0.528179 -0.849047 0 -0.290432 -0.956818 0 -0.0328934 -0.999385 0 0.226887 -0.973845 0 0.471206 -0.88194 0 0.683413 -0.729931 0 0.849046 -0.528179 0 0.956817 -0.290433 0 0.999384 -0.0328932 0 0.997108 -0.0787636 0 0.98352 0.181992 0 0.902905 0.430344 0 0.760758 0.649369 0 0.566766 0.824141 0 0.33415 0.942749 0 0.0787633 0.99711 0 -0.181992 0.98352 0 -0.430344 0.902904 0 -0.649369 0.760757 0 -0.824141 0.566766 0 -0.942749 0.334151 0 -0.99711 0.0787636 0 -0.98352 -0.181991 0 -0.902905 -0.430344 0 -0.760758 -0.649369 0 -0.566767 -0.824142 0 -0.334151 -0.942749 0 -0.0787637 -0.99711 0 0.181991 -0.98352 0 0.430344 -0.902905 0 0.649369 -0.760758 0 0.824141 -0.566767 0 0.942748 -0.334151 0 0.997108 -0.0787636 0 0 0 -1.00002 0 0 -1.00002 0 0 -1.00002 0 0 -1.00002 0 0 -1.00002 0 0 -1.00002 0 0 -1.00002 0 0 -1.00002 0 0 -1.00002 0 0 -1.00002 0 0 -1.00002 0 0 -1.00002 0 0 -1.00002 0 0 -1.00002 0 0 -1.00002 0 0 -1.00002 0 0 -1.00002 0 0 -1.00002 0 0 -1.00002 0 0 -1.00002 0 0 -1.00002 0 0 -1.00002 0 0 -1.00002 0 0 -1.00002 0 0 -1.00002 0 0 -1.00002</float_array>
					<technique_common>
						<accessor count="152" source="#prim4-normals-array" stride="3">
							<param name="X" type="float"/>
							<param name="Y" type="float"/>
							<param name="Z" type="float"/>
						</accessor>
					</technique_common>
				</source>
				<source id="prim4-map0">
					<float_array id="prim4-map0-array" count="304">1 0.5 0.982963 0.62941 0.933013 0.75 0.853553 0.853553 0.75 0.933013 0.62941 0.982963 0.5 1 0.370591 0.982963 0.25 0.933013 0.146447 0.853553 0.0669874 0.75 0.0170371 0.62941 0 0.5 0.017037 0.370591 0.0669872 0.25 0.146446 0.146447 0.25 0.0669874 0.37059 0.0170372 0.5 0 0.629409 0.017037 0.75 0.0669872 0.853553 0.146446 0.933013 0.25 0.982963 0.37059 1 0.499999 0.5 0.5 0 0 0.0416667 0 0.0833333 0 0.125 0 0.166667 0 0.208333 0 0.25 0 0.291667 0 0.333333 0 0.375 0 0.416667 0 0.458333 0 0.5 0 0.541667 0 0.583333 0 0.625 0 0.666667 0 0.708333 0 0.75 0 0.791667 0 0.833333 0 0.875 0 0.916667 0 0.958333 0 1 0 0 0.333333 0.0416667 0.333333 0.0833333 0.333333 0.125 0.333333 0.166667 0.333333 0.208333 0.333333 0.25 0.333333 0.291667 0.333333 0.333333 0.333333 0.375 0.333333 0.416667 0.333333 0.458333 0.333333 0.5 0.333333 0.541667 0.333333 0.583333 0.333333 0.625 0.333333 0.666667 0.333333 0.708333 0.333333 0.75 0.333333 0.791667 0.333333 0.833333 0.333333 0.875 0.333333 0.916667 0.333333 0.958333 0.333333 1 0.333333 0 0.666667 0.0416667 0.666667 0.0833333 0.666667 0.125 0.666667 0.166667 0.666667 0.208333 0.666667 0.25 0.666667 0.291667 0.666667 0.333333 0.666667 0.375 0.666667 0.416667 0.666667 0.458333 0.666667 0.5 0.666667 0.541667 0.666667 0.583333 0.666667 0.625 0.666667 0.666667 0.666667 0.708333 0.666667 0.75 0.666667 0.791667 0.666667 0.833333 0.666667 0.875 0.666667 0.916667 0.666667 0.958333 0.666667 1 0.666667 0 1 0.0416667 1 0.0833333 1 0.125 1 0.166667 1 0.208333 1 0.25 1 0.291667 1 0.333333 1 0.375 1 0.416667 1 0.458333 1 0.5 1 0.541667 1 0.583333 1 0.625 1 0.666667 1 0.708333 1 0.75 1 0.791667 1 0.833333 1 0.875 1 0.916667 1 0.958333 1 1 1 1 0.5 0.982963 0.37059 0.933013 0.25 0.853553 0.146447 0.75 0.0669873 0.62941 0.0170371 0.5 0 0.370591 0.0170371 0.25 0.0669872 0.146447 0.146447 0.0669874 0.25 0.0170371 0.37059 0 0.5 0.017037 0.629409 0.0669872 0.75 0.146446 0.853553 0.25 0.933013 0.37059 0.982963 0.5 1 0.629409 0.982963 0.75 0.933013 0.853553 0.853554 0.933013 0.75 0.982963 0.62941 1 0.500001 0.5 0.5</float_array>
					<technique_common>
						<accessor count="152" source="#prim4-map0-array" stride="2">
							<param name="S" type="float"/>
							<param name="T" type="float"/>
						</accessor>
					</technique_common>
				</source>
				<vertices id="prim4-vertices">
					<input semantic="POSITION" source="#prim4-positions"/>
				</vertices>
				<polylist count="24" material="Material6-material">
					<input offset="0" semantic="VERTEX" source="#prim4-vertices" set="0"/>
					<input offset="0" semantic="NORMAL" source="#prim4-normals" set="0"/>
					<input offset="0" semantic="TEXCOORD" source="#prim4-map0" set="0"/>
					<vcount>3 3 3 3 3 3 3 3 3 3 3 3 3 3 3 3 3 3 3 3 3 3 3 3</vcount>
					<p>25 0 1 25 1 2 25 2 3 25 3 4 25 4 5 25 5 6 25 6 7 25 7 8 25 8 9 25 9 10 25 10 11 25 11 12 25 12 13 25 13 14 25 14 15 25 15 16 25 16 17 25 17 18 25 18 19 25 19 20 25 20 21 25 21 22 25 22 23 25 23 24</p>
				</polylist>
				<polylist count="144" material="Material7-material">
					<input offset="0" semantic="VERTEX" source="#prim4-vertices" set="0"/>
					<input offset="0" semantic="NORMAL" source="#prim4-normals" set="0"/>
					<input offset="0" semantic="TEXCOORD" source="#prim4-map0" set="0"/>
					<vcount>3 3 3 3 3 3 3 3 3 3 3 3 3 3 3 3 3 3 3 3 3 3 3 3 3 3 3 3 3 3 3 3 3 3 3 3 3 3 3 3 3 3 3 3 3 3 3 3 3 3 3 3 3 3 3 3 3 3 3 3 3 3 3 3 3 3 3 3 3 3 3 3 3 3 3 3 3 3 3 3 3 3 3 3 3 3 3 3 3 3 3 3 3 3 3 3 3 3 3 3 3 3 3 3 3 3 3 3 3 3 3 3 3 3 3 3 3 3 3 3 3 3 3 3 3 3 3 3 3 3 3 3 3 3 3 3 3 3 3 3 3 3 3 3</vcount>
					<p>26 52 51 26 27 52 27 53 52 27 28 53 28 54 53 28 29 54 29 55 54 29 30 55 30 56 55 30 31 56 31 57 56 31 32 57 32 58 57 32 33 58 33 59 58 33 34 59 34 60 59 34 35 60 35 61 60 35 36 61 36 62 61 36 37 62 37 63 62 37 38 63 38 64 63 38 39 64 39 65 64 39 40 65 40 66 65 40 41 66 41 67 66 41 42 67 42 68 67 42 43 68 43 69 68 43 44 69 44 70 69 44 45 70 45 71 70 45 46 71 46 72 71 46 47 72 47 73 72 47 48 73 48 74 73 48 49 74 49 75 74 49 50 75 51 77 76 51 52 77 52 78 77 52 53 78 53 79 78 53 54 79 54 80 79 54 55 80 55 81 80 55 56 81 56 82 81 56 57 82 57 83 82 57 58 83 58 84 83 58 59 84 59 85 84 59 60 85 60 86 85 60 61 86 61 87 86 61 62 87 62 88 87 62 63 88 63 89 88 63 64 89 64 90 89 64 65 90 65 91 90 65 66 91 66 92 91 66 67 92 67 93 92 67 68 93 68 94 93 68 69 94 69 95 94 69 70 95 70 96 95 70 71 96 71 97 96 71 72 97 72 98 97 72 73 98 73 99 98 73 74 99 74 100 99 74 75 100 76 102 101 76 77 102 77 103 102 77 78 103 78 104 103 78 79 104 79 105 104 79 80 105 80 106 105 80 81 106 81 107 106 81 82 107 82 108 107 82 83 108 83 109 108 83 84 109 84 110 109 84 85 110 85 111 110 85 86 111 86 112 111 86 87 112 87 113 112 87 88 113 88 114 113 88 89 114 89 115 114 89 90 115 90 116 115 90 91 116 91 117 116 91 92 117 92 118 117 92 93 118 93 119 118 93 94 119 94 120 119 94 95 120 95 121 120 95 96 121 96 122 121 96 97 122 97 123 122 97 98 123 98 124 123 98 99 124 99 125 124 99 100 125</p>
				</polylist>
				<polylist count="24" material="Material2-material">
					<input offset="0" semantic="VERTEX" source="#prim4-vertices" set="0"/>
					<input offset="0" semantic="NORMAL" source="#prim4-normals" set="0"/>
					<input offset="0" semantic="TEXCOORD" source="#prim4-map0" set="0"/>
					<vcount>3 3 3 3 3 3 3 3 3 3 3 3 3 3 3 3 3 3 3 3 3 3 3 3</vcount>
					<p>151 127 126 151 128 127 151 129 128 151 130 129 151 131 130 151 132 131 151 133 132 151 134 133 151 135 134 151 136 135 151 137 136 151 138 137 151 139 138 151 140 139 151 141 140 151 142 141 151 143 142 151 144 143 151 145 144 151 146 145 151 147 146 151 148 147 151 149 148 151 150 149</p>
				</polylist>
			</mesh>
		</geometry>
		<geometry id="prim5-mesh">
			<mesh>
				<source id="prim5-positions">
					<float_array id="prim5-positions-array" count="456">0.4 0 0.5 0.38637 0.109998 0.5 0.34641 0.2125 0.5 0.282843 0.30052 0.5 0.2 0.368061 0.5 0.103528 0.410518 0.5 3.01992e-008 0.425 0.5 -0.103528 0.410518 0.5 -0.2 0.368061 0.5 -0.282843 0.30052 0.5 -0.34641 0.2125 0.5 -0.38637 0.109998 0.5 -0.4 1.65501e-007 0.5 -0.38637 -0.109998 0.5 -0.34641 -0.2125 0.5 -0.282843 -0.30052 0.5 -0.2 -0.368061 0.5 -0.103528 -0.410518 0.5 -1.85965e-007 -0.425 0.5 0.103527 -0.410518 0.5 0.2 -0.368061 0.5 0.282843 -0.300521 0.5 0.34641 -0.2125 0.5 0.38637 -0.109998 0.5 0.4 -5.95301e-007 0.5 0 0 0.5 0.5 0 -0.5 0.482963 0.12941 -0.5 0.433013 0.25 -0.5 0.353553 0.353553 -0.5 0.25 0.433013 -0.5 0.12941 0.482963 -0.5 3.7749e-008 0.5 -0.5 -0.129409 0.482963 -0.5 -0.25 0.433013 -0.5 -0.353553 0.353553 -0.5 -0.433013 0.25 -0.5 -0.482963 0.12941 -0.5 -0.5 1.94707e-007 -0.5 -0.482963 -0.129409 -0.5 -0.433013 -0.25 -0.5 -0.353554 -0.353553 -0.5 -0.25 -0.433013 -0.5 -0.12941 -0.482963 -0.5 -2.32456e-007 -0.5 -0.5 0.129409 -0.482963 -0.5 0.25 -0.433013 -0.5 0.353553 -0.353554 -0.5 0.433013 -0.25 -0.5 0.482963 -0.12941 -0.5 0.5 -7.00355e-007 -0.5 0.466667 0 -0.166667 0.450765 0.122939 -0.166667 0.404145 0.2375 -0.166667 0.329983 0.335876 -0.166667 0.233333 0.411362 -0.166667 0.120782 0.458815 -0.166667 3.52324e-008 0.475 -0.166667 -0.120782 0.458815 -0.166667 -0.233333 0.411362 -0.166667 -0.329983 0.335876 -0.166667 -0.404145 0.2375 -0.166667 -0.450765 0.122939 -0.166667 -0.466667 1.84972e-007 -0.166667 -0.450765 -0.122939 -0.166667 -0.404145 -0.2375 -0.166667 -0.329983 -0.335876 -0.166667 -0.233333 -0.411362 -0.166667 -0.120782 -0.458815 -0.166667 -2.16959e-007 -0.475 -0.166667 0.120782 -0.458815 -0.166667 0.233333 -0.411362 -0.166667 0.329983 -0.335876 -0.166667 0.404145 -0.2375 -0.166667 0.450765 -0.122939 -0.166667 0.466667 -6.65337e-007 -0.166667 0.433333 0 0.166667 0.418568 0.116469 0.166667 0.375278 0.225 0.166667 0.306413 0.318198 0.166667 0.216667 0.389711 0.166667 0.112155 0.434667 0.166667 3.27158e-008 0.45 0.166667 -0.112155 0.434667 0.166667 -0.216667 0.389711 0.166667 -0.306413 0.318198 0.166667 -0.375278 0.225 0.166667 -0.418568 0.116469 0.166667 -0.433333 1.75236e-007 0.166667 -0.418568 -0.116468 0.166667 -0.375278 -0.225 0.166667 -0.306413 -0.318198 0.166667 -0.216667 -0.389711 0.166667 -0.112155 -0.434667 0.166667 -2.01462e-007 -0.45 0.166667 0.112155 -0.434667 0.166667 0.216666 -0.389712 0.166667 0.306413 -0.318198 0.166667 0.375278 -0.225 0.166667 0.418568 -0.116469 0.166667 0.433333 -6.30319e-007 0.166667 0.4 0 0.5 0.38637 0.109998 0.5 0.34641 0.2125 0.5 0.282843 0.30052 0.5 0.2 0.368061 0.5 0.103528 0.410518 0.5 3.01992e-008 0.425 0.5 -0.103528 0.410518 0.5 -0.2 0.368061 0.5 -0.282843 0.30052 0.5 -0.34641 0.2125 0.5 -0.38637 0.109998 0.5 -0.4 1.65501e-007 0.5 -0.38637 -0.109998 0.5 -0.34641 -0.2125 0.5 -0.282843 -0.30052 0.5 -0.2 -0.368061 0.5 -0.103528 -0.410518 0.5 -1.85965e-007 -0.425 0.5 0.103527 -0.410518 0.5 0.2 -0.368061 0.5 0.282843 -0.300521 0.5 0.34641 -0.2125 0.5 0.38637 -0.109998 0.5 0.4 -5.95301e-007 0.5 0.5 0 -0.5 0.482963 0.12941 -0.5 0.433013 0.25 -0.5 0.353553 0.353553 -0.5 0.25 0.433013 -0.5 0.12941 0.482963 -0.5 3.7749e-008 0.5 -0.5 -0.129409 0.482963 -0.5 -0.25 0.433013 -0.5 -0.353553 0.353553 -0.5 -0.433013 0.25 -0.5 -0.482963 0.12941 -0.5 -0.5 1.94707e-007 -0.5 -0.482963 -0.129409 -0.5 -0.433013 -0.25 -0.5 -0.353554 -0.353553 -0.5 -0.25 -0.433013 -0.5 -0.12941 -0.482963 -0.5 -2.32456e-007 -0.5 -0.5 0.129409 -0.482963 -0.5 0.25 -0.433013 -0.5 0.353553 -0.353554 -0.5 0.433013 -0.25 -0.5 0.482963 -0.12941 -0.5 0.5 -7.00355e-007 -0.5 0 0 -0.5</float_array>
					<technique_common>
						<accessor count="152" source="#prim5-positions-array" stride="3">
							<param name="X" type="float"/>
							<param name="Y" type="float"/>
							<param name="Z" type="float"/>
						</accessor>
					</technique_common>
				</source>
				<source id="prim5-normals">
					<float_array id="prim5-normals-array" count="456">0 0 0.999879 0 0 0.999879 0 0 0.999879 0 0 0.999879 0 0 0.999879 0 0 0.999879 0 0 0.999879 0 0 0.999879 0 0 0.999879 0 0 0.999879 0 0 0.999879 0 0 0.999879 0 0 0.999879 0 0 0.999879 0 0 0.999879 0 0 0.999879 0 0 0.999879 0 0 0.999879 0 0 0.999879 0 0 0.999879 0 0 0.999879 0 0 0.999879 0 0 0.999879 0 0 0.999879 0 0 0.999879 0 0 0.999879 0.994285 0.0414147 0.0991414 0.950327 0.296149 0.0967581 0.841994 0.53146 0.0917745 0.676372 0.731747 0.085557 0.463688 0.882728 0.0797297 0.218247 0.972941 0.0758435 -0.0424703 0.996083 0.0749955 -0.300144 0.95087 0.0774435 -0.536384 0.839786 0.0824419 -0.735255 0.671986 0.0887028 -0.883367 0.459099 0.0945035 -0.971317 0.215883 0.0982997 -0.994286 -0.0414144 0.0991415 -0.950327 -0.296148 0.0967581 -0.841995 -0.531459 0.0917745 -0.676373 -0.731747 0.0855571 -0.463688 -0.882728 0.0797297 -0.218247 -0.972941 0.0758435 0.04247 -0.996082 0.0749955 0.300144 -0.950871 0.0774435 0.536384 -0.839786 0.0824419 0.735255 -0.671987 0.0887029 0.883366 -0.459099 0.0945035 0.971315 -0.215883 0.0982995 0.994285 0.0414147 0.0991414 0.994332 -0.035365 0.099101 0.970631 0.219517 0.0979358 0.88236 0.460892 0.0938906 0.734275 0.673211 0.0880403 0.534386 0.841067 0.0818789 0.29605 0.952133 0.0771416 0.0356992 0.996464 0.0750729 -0.227234 0.971052 0.076311 -0.473141 0.877451 0.0804548 -0.68445 0.723894 0.0863712 -0.847542 0.522656 0.0924725 -0.95276 0.288007 0.0971252 -0.994333 0.035365 0.0991012 -0.970631 -0.219516 0.0979358 -0.88236 -0.460891 0.0938906 -0.734275 -0.67321 0.0880403 -0.534386 -0.841067 0.081879 -0.296051 -0.952133 0.0771416 -0.0356996 -0.996464 0.0750729 0.227234 -0.971052 0.076311 0.47314 -0.877451 0.0804548 0.68445 -0.723894 0.0863712 0.847542 -0.522657 0.0924725 0.952759 -0.288007 0.0971252 0.994332 -0.035365 0.099101 0.994413 -0.0349115 0.0990908 0.971729 0.215239 0.0979542 0.886217 0.453627 0.0939637 0.741025 0.665878 0.0881558 0.542126 0.836287 0.0819928 0.301498 0.950245 0.0771831 0.0365425 0.996394 0.0750934 -0.231353 0.96995 0.076344 -0.480258 0.873587 0.0805458 -0.691382 0.71721 0.0864794 -0.852002 0.51539 0.0925543 -0.954047 0.283 0.0971242 -0.994414 0.0349116 0.0990909 -0.971729 -0.215238 0.0979542 -0.886217 -0.453627 0.0939638 -0.741025 -0.665878 0.0881558 -0.542127 -0.836287 0.0819928 -0.301499 -0.950245 0.0771831 -0.0365429 -0.996394 0.0750934 0.231352 -0.96995 0.076344 0.480257 -0.873587 0.0805458 0.691381 -0.71721 0.0864794 0.852002 -0.51539 0.0925543 0.954045 -0.283001 0.0971242 0.994413 -0.0349115 0.0990908 0.992458 -0.0760934 0.098857 0.980509 0.170794 0.0984145 0.90743 0.409285 0.0950055 0.774435 0.626257 0.0894551 0.585512 0.806673 0.0831734 0.34959 0.933489 0.0777865 0.0838594 0.993521 0.0749236 -0.18932 0.97887 0.0754048 -0.445758 0.891661 0.0790951 -0.664798 0.742181 0.0848744 -0.832864 0.546045 0.0911308 -0.94289 0.319216 0.0962052 -0.99246 0.0760934 0.0988573 -0.980509 -0.170793 0.0984144 -0.90743 -0.409284 0.0950055 -0.774435 -0.626257 0.0894552 -0.585512 -0.806673 0.0831735 -0.34959 -0.933489 0.0777864 -0.0838599 -0.993521 0.0749236 0.18932 -0.97887 0.0754048 0.445757 -0.891661 0.0790951 0.664798 -0.742182 0.0848745 0.832863 -0.546045 0.0911308 0.94289 -0.319216 0.0962051 0.992458 -0.0760934 0.098857 0 0 -1.00002 0 0 -1.00002 0 0 -1.00002 0 0 -1.00002 0 0 -1.00002 0 0 -1.00002 0 0 -1.00002 0 0 -1.00002 0 0 -1.00002 0 0 -1.00002 0 0 -1.00002 0 0 -1.00002 0 0 -1.00002 0 0 -1.00002 0 0 -1.00002 0 0 -1.00002 0 0 -1.00002 0 0 -1.00002 0 0 -1.00002 0 0 -1.00002 0 0 -1.00002 0 0 -1.00002 0 0 -1.00002 0 0 -1.00002 0 0 -1.00002 0 0 -1.00002</float_array>
					<technique_common>
						<accessor count="152" source="#prim5-normals-array" stride="3">
							<param name="X" type="float"/>
							<param name="Y" type="float"/>
							<param name="Z" type="float"/>
						</accessor>
					</technique_common>
				</source>
				<source id="prim5-map0">
					<float_array id="prim5-map0-array" count="304">1 0.5 0.982963 0.62941 0.933013 0.75 0.853553 0.853553 0.75 0.933013 0.62941 0.982963 0.5 1 0.370591 0.982963 0.25 0.933013 0.146447 0.853553 0.0669874 0.75 0.0170371 0.62941 0 0.5 0.017037 0.370591 0.0669872 0.25 0.146446 0.146447 0.25 0.0669874 0.37059 0.0170372 0.5 0 0.629409 0.017037 0.75 0.0669872 0.853553 0.146446 0.933013 0.25 0.982963 0.37059 1 0.499999 0.5 0.5 -12 0 -10.9583 0 -9.91667 0 -8.875 0 -7.83333 0 -6.79167 0 -5.75 0 -4.70833 0 -3.66667 0 -2.625 0 -1.58333 0 -0.541668 0 0.499999 0 1.54167 0 2.58333 0 3.625 0 4.66667 0 5.70833 0 6.75 0 7.79167 0 8.83334 0 9.875 0 10.9167 0 11.9583 0 13 0 -12 0.333333 -10.9583 0.333333 -9.91667 0.333333 -8.875 0.333333 -7.83333 0.333333 -6.79167 0.333333 -5.75 0.333333 -4.70833 0.333333 -3.66667 0.333333 -2.625 0.333333 -1.58333 0.333333 -0.541668 0.333333 0.499999 0.333333 1.54167 0.333333 2.58333 0.333333 3.625 0.333333 4.66667 0.333333 5.70833 0.333333 6.75 0.333333 7.79167 0.333333 8.83334 0.333333 9.875 0.333333 10.9167 0.333333 11.9583 0.333333 13 0.333333 -12 0.666667 -10.9583 0.666667 -9.91667 0.666667 -8.875 0.666667 -7.83333 0.666667 -6.79167 0.666667 -5.75 0.666667 -4.70833 0.666667 -3.66667 0.666667 -2.625 0.666667 -1.58333 0.666667 -0.541668 0.666667 0.499999 0.666667 1.54167 0.666667 2.58333 0.666667 3.625 0.666667 4.66667 0.666667 5.70833 0.666667 6.75 0.666667 7.79167 0.666667 8.83334 0.666667 9.875 0.666667 10.9167 0.666667 11.9583 0.666667 13 0.666667 -12 1 -10.9583 1 -9.91667 1 -8.875 1 -7.83333 1 -6.79167 1 -5.75 1 -4.70833 1 -3.66667 1 -2.625 1 -1.58333 1 -0.541668 1 0.499999 1 1.54167 1 2.58333 1 3.625 1 4.66667 1 5.70833 1 6.75 1 7.79167 1 8.83334 1 9.875 1 10.9167 1 11.9583 1 13 1 1 0.5 0.982963 0.37059 0.933013 0.25 0.853553 0.146447 0.75 0.0669873 0.62941 0.0170371 0.5 0 0.370591 0.0170371 0.25 0.0669872 0.146447 0.146447 0.0669874 0.25 0.0170371 0.37059 0 0.5 0.017037 0.629409 0.0669872 0.75 0.146446 0.853553 0.25 0.933013 0.37059 0.982963 0.5 1 0.629409 0.982963 0.75 0.933013 0.853553 0.853554 0.933013 0.75 0.982963 0.62941 1 0.500001 0.5 0.5</float_array>
					<technique_common>
						<accessor count="152" source="#prim5-map0-array" stride="2">
							<param name="S" type="float"/>
							<param name="T" type="float"/>
						</accessor>
					</technique_common>
				</source>
				<vertices id="prim5-vertices">
					<input semantic="POSITION" source="#prim5-positions"/>
				</vertices>
				<polylist count="24" material="Material8-material">
					<input offset="0" semantic="VERTEX" source="#prim5-vertices" set="0"/>
					<input offset="0" semantic="NORMAL" source="#prim5-normals" set="0"/>
					<input offset="0" semantic="TEXCOORD" source="#prim5-map0" set="0"/>
					<vcount>3 3 3 3 3 3 3 3 3 3 3 3 3 3 3 3 3 3 3 3 3 3 3 3</vcount>
					<p>25 0 1 25 1 2 25 2 3 25 3 4 25 4 5 25 5 6 25 6 7 25 7 8 25 8 9 25 9 10 25 10 11 25 11 12 25 12 13 25 13 14 25 14 15 25 15 16 25 16 17 25 17 18 25 18 19 25 19 20 25 20 21 25 21 22 25 22 23 25 23 24</p>
				</polylist>
				<polylist count="144" material="Material1-material">
					<input offset="0" semantic="VERTEX" source="#prim5-vertices" set="0"/>
					<input offset="0" semantic="NORMAL" source="#prim5-normals" set="0"/>
					<input offset="0" semantic="TEXCOORD" source="#prim5-map0" set="0"/>
					<vcount>3 3 3 3 3 3 3 3 3 3 3 3 3 3 3 3 3 3 3 3 3 3 3 3 3 3 3 3 3 3 3 3 3 3 3 3 3 3 3 3 3 3 3 3 3 3 3 3 3 3 3 3 3 3 3 3 3 3 3 3 3 3 3 3 3 3 3 3 3 3 3 3 3 3 3 3 3 3 3 3 3 3 3 3 3 3 3 3 3 3 3 3 3 3 3 3 3 3 3 3 3 3 3 3 3 3 3 3 3 3 3 3 3 3 3 3 3 3 3 3 3 3 3 3 3 3 3 3 3 3 3 3 3 3 3 3 3 3 3 3 3 3 3 3</vcount>
					<p>26 52 51 26 27 52 27 53 52 27 28 53 28 54 53 28 29 54 29 55 54 29 30 55 30 56 55 30 31 56 31 57 56 31 32 57 32 58 57 32 33 58 33 59 58 33 34 59 34 60 59 34 35 60 35 61 60 35 36 61 36 62 61 36 37 62 37 63 62 37 38 63 38 64 63 38 39 64 39 65 64 39 40 65 40 66 65 40 41 66 41 67 66 41 42 67 42 68 67 42 43 68 43 69 68 43 44 69 44 70 69 44 45 70 45 71 70 45 46 71 46 72 71 46 47 72 47 73 72 47 48 73 48 74 73 48 49 74 49 75 74 49 50 75 51 77 76 51 52 77 52 78 77 52 53 78 53 79 78 53 54 79 54 80 79 54 55 80 55 81 80 55 56 81 56 82 81 56 57 82 57 83 82 57 58 83 58 84 83 58 59 84 59 85 84 59 60 85 60 86 85 60 61 86 61 87 86 61 62 87 62 88 87 62 63 88 63 89 88 63 64 89 64 90 89 64 65 90 65 91 90 65 66 91 66 92 91 66 67 92 67 93 92 67 68 93 68 94 93 68 69 94 69 95 94 69 70 95 70 96 95 70 71 96 71 97 96 71 72 97 72 98 97 72 73 98 73 99 98 73 74 99 74 100 99 74 75 100 76 102 101 76 77 102 77 103 102 77 78 103 78 104 103 78 79 104 79 105 104 79 80 105 80 106 105 80 81 106 81 107 106 81 82 107 82 108 107 82 83 108 83 109 108 83 84 109 84 110 109 84 85 110 85 111 110 85 86 111 86 112 111 86 87 112 87 113 112 87 88 113 88 114 113 88 89 114 89 115 114 89 90 115 90 116 115 90 91 116 91 117 116 91 92 117 92 118 117 92 93 118 93 119 118 93 94 119 94 120 119 94 95 120 95 121 120 95 96 121 96 122 121 96 97 122 97 123 122 97 98 123 98 124 123 98 99 124 99 125 124 99 100 125</p>
				</polylist>
				<polylist count="24" material="Material2-material">
					<input offset="0" semantic="VERTEX" source="#prim5-vertices" set="0"/>
					<input offset="0" semantic="NORMAL" source="#prim5-normals" set="0"/>
					<input offset="0" semantic="TEXCOORD" source="#prim5-map0" set="0"/>
					<vcount>3 3 3 3 3 3 3 3 3 3 3 3 3 3 3 3 3 3 3 3 3 3 3 3</vcount>
					<p>151 127 126 151 128 127 151 129 128 151 130 129 151 131 130 151 132 131 151 133 132 151 134 133 151 135 134 151 136 135 151 137 136 151 138 137 151 139 138 151 140 139 151 141 140 151 142 141 151 143 142 151 144 143 151 145 144 151 146 145 151 147 146 151 148 147 151 149 148 151 150 149</p>
				</polylist>
			</mesh>
		</geometry>
	</library_geometries>
	<library_effects>
		<effect id="Material0-fx">
			<profile_COMMON>
				<newparam sid="green_tga-surface">
					<surface type="2D">
						<init_from>green_tga</init_from>
					</surface>
				</newparam>
				<newparam sid="green_tga-sampler">
					<sampler2D>
						<source>green_tga-surface</source>
					</sampler2D>
				</newparam>
				<technique sid="common">
					<phong>
						<diffuse>
							<texture texture="green_tga-sampler" texcoord="green_tga"/>
						</diffuse>
					</phong>
				</technique>
			</profile_COMMON>
		</effect>
		<effect id="Material1-fx">
			<profile_COMMON>
				<newparam sid="goldleaf_tga-surface">
					<surface type="2D">
						<init_from>goldleaf_tga</init_from>
					</surface>
				</newparam>
				<newparam sid="goldleaf_tga-sampler">
					<sampler2D>
						<source>goldleaf_tga-surface</source>
					</sampler2D>
				</newparam>
				<technique sid="common">
					<phong>
						<diffuse>
							<texture texture="goldleaf_tga-sampler" texcoord="goldleaf_tga"/>
						</diffuse>
					</phong>
				</technique>
			</profile_COMMON>
		</effect>
		<effect id="Material2-fx">
			<profile_COMMON>
				<technique sid="common">
					<phong>
						<diffuse>
							<color sid="diffuse">1 1 1 1</color>
						</diffuse>
						<transparency>
							<float>1</float>
						</transparency>
					</phong>
				</technique>
			</profile_COMMON>
		</effect>
		<effect id="Material3-fx">
			<profile_COMMON>
				<newparam sid="blue_tga-surface">
					<surface type="2D">
						<init_from>blue_tga</init_from>
					</surface>
				</newparam>
				<newparam sid="blue_tga-sampler">
					<sampler2D>
						<source>blue_tga-surface</source>
					</sampler2D>
				</newparam>
				<technique sid="common">
					<phong>
						<diffuse>
							<texture texture="blue_tga-sampler" texcoord="blue_tga"/>
						</diffuse>
					</phong>
				</technique>
			</profile_COMMON>
		</effect>
		<effect id="Material4-fx">
			<profile_COMMON>
				<newparam sid="orange_tga-surface">
					<surface type="2D">
						<init_from>orange_tga</init_from>
					</surface>
				</newparam>
				<newparam sid="orange_tga-sampler">
					<sampler2D>
						<source>orange_tga-surface</source>
					</sampler2D>
				</newparam>
				<technique sid="common">
					<phong>
						<diffuse>
							<texture texture="orange_tga-sampler" texcoord="orange_tga"/>
						</diffuse>
					</phong>
				</technique>
			</profile_COMMON>
		</effect>
		<effect id="Material5-fx">
			<profile_COMMON>
				<newparam sid="red_tga-surface">
					<surface type="2D">
						<init_from>red_tga</init_from>
					</surface>
				</newparam>
				<newparam sid="red_tga-sampler">
					<sampler2D>
						<source>red_tga-surface</source>
					</sampler2D>
				</newparam>
				<technique sid="common">
					<phong>
						<diffuse>
							<texture texture="red_tga-sampler" texcoord="red_tga"/>
						</diffuse>
					</phong>
				</technique>
			</profile_COMMON>
		</effect>
		<effect id="Material6-fx">
			<profile_COMMON>
				<newparam sid="Pointer_tga-surface">
					<surface type="2D">
						<init_from>Pointer_tga</init_from>
					</surface>
				</newparam>
				<newparam sid="Pointer_tga-sampler">
					<sampler2D>
						<source>Pointer_tga-surface</source>
					</sampler2D>
				</newparam>
				<technique sid="common">
					<phong>
						<diffuse>
							<texture texture="Pointer_tga-sampler" texcoord="Pointer_tga"/>
						</diffuse>
					</phong>
				</technique>
			</profile_COMMON>
		</effect>
		<effect id="Material7-fx">
			<profile_COMMON>
				<technique sid="common">
					<phong>
						<diffuse>
							<color sid="diffuse">1 1 1 0</color>
						</diffuse>
						<transparency>
							<float>0</float>
						</transparency>
					</phong>
				</technique>
			</profile_COMMON>
		</effect>
		<effect id="Material8-fx">
			<profile_COMMON>
				<newparam sid="purple_magic_circle1_tga-surface">
					<surface type="2D">
						<init_from>purple_magic_circle1_tga</init_from>
					</surface>
				</newparam>
				<newparam sid="purple_magic_circle1_tga-sampler">
					<sampler2D>
						<source>purple_magic_circle1_tga-surface</source>
					</sampler2D>
				</newparam>
				<technique sid="common">
					<phong>
						<diffuse>
							<texture texture="purple_magic_circle1_tga-sampler" texcoord="purple_magic_circle1_tga"/>
						</diffuse>
					</phong>
				</technique>
			</profile_COMMON>
		</effect>
	</library_effects>
	<library_materials>
		<material id="Material0-material">
			<instance_effect url="#Material0-fx"/>
		</material>
		<material id="Material1-material">
			<instance_effect url="#Material1-fx"/>
		</material>
		<material id="Material2-material">
			<instance_effect url="#Material2-fx"/>
		</material>
		<material id="Material3-material">
			<instance_effect url="#Material3-fx"/>
		</material>
		<material id="Material4-material">
			<instance_effect url="#Material4-fx"/>
		</material>
		<material id="Material5-material">
			<instance_effect url="#Material5-fx"/>
		</material>
		<material id="Material6-material">
			<instance_effect url="#Material6-fx"/>
		</material>
		<material id="Material7-material">
			<instance_effect url="#Material7-fx"/>
		</material>
		<material id="Material8-material">
			<instance_effect url="#Material8-fx"/>
		</material>
	</library_materials>
	<library_visual_scenes>
		<visual_scene id="Scene" name="Scene">
			<node id="prim0" name="prim0">
				<matrix>-4.36306e-005 -1.5 0 0 1.5 -4.36306e-005 0 -3.6703 0 0 0.75 0.00872803 0 0 0 1</matrix>
				<instance_geometry url="#prim0-mesh">
					<bind_material>
						<technique_common>
							<instance_material symbol="Material0-material" target="#Material0-material"/>
							<instance_material symbol="Material1-material" target="#Material1-material"/>
							<instance_material symbol="Material2-material" target="#Material2-material"/>
						</technique_common>
					</bind_material>
				</instance_geometry>
			</node>
			<node id="prim1" name="prim1">
				<matrix>1.5 1.31134e-007 0 -3.6703 -1.31134e-007 1.5 -0 0 -0 0 0.75 0.0264893 0 0 0 1</matrix>
				<instance_geometry url="#prim1-mesh">
					<bind_material>
						<technique_common>
							<instance_material symbol="Material3-material" target="#Material3-material"/>
							<instance_material symbol="Material1-material" target="#Material1-material"/>
							<instance_material symbol="Material2-material" target="#Material2-material"/>
						</technique_common>
					</bind_material>
				</instance_geometry>
			</node>
			<node id="prim2" name="prim2">
				<matrix>0.147069 1.49277 0 0 -1.49277 0.147069 -0 3.6703 -0 0 0.75 0.0145874 0 0 0 1</matrix>
				<instance_geometry url="#prim2-mesh">
					<bind_material>
						<technique_common>
							<instance_material symbol="Material4-material" target="#Material4-material"/>
							<instance_material symbol="Material1-material" target="#Material1-material"/>
							<instance_material symbol="Material2-material" target="#Material2-material"/>
						</technique_common>
					</bind_material>
				</instance_geometry>
			</node>
			<node id="prim3" name="prim3">
				<matrix>-1.5 0 0 3.6703 0 -1.5 -0 0 -0 0 0.75 -0.000610352 0 0 0 1</matrix>
				<instance_geometry url="#prim3-mesh">
					<bind_material>
						<technique_common>
							<instance_material symbol="Material5-material" target="#Material5-material"/>
							<instance_material symbol="Material1-material" target="#Material1-material"/>
							<instance_material symbol="Material2-material" target="#Material2-material"/>
						</technique_common>
					</bind_material>
				</instance_geometry>
			</node>
			<node id="prim4" name="prim4">
				<matrix>-1.2664 3.44488 0 0 -3.44488 -1.2664 -0 0 -0 0 0.0734057 0.331177 0 0 0 1</matrix>
				<instance_geometry url="#prim4-mesh">
					<bind_material>
						<technique_common>
							<instance_material symbol="Material6-material" target="#Material6-material"/>
							<instance_material symbol="Material7-material" target="#Material7-material"/>
							<instance_material symbol="Material2-material" target="#Material2-material"/>
						</technique_common>
					</bind_material>
				</instance_geometry>
			</node>
			<node id="prim5" name="prim5">
				<matrix>8.80868 0 0 0 0 8.80868 0 0 0 0 0.612373 0 0 0 0 1</matrix>
				<instance_geometry url="#prim5-mesh">
					<bind_material>
						<technique_common>
							<instance_material symbol="Material8-material" target="#Material8-material"/>
							<instance_material symbol="Material1-material" target="#Material1-material"/>
							<instance_material symbol="Material2-material" target="#Material2-material"/>
						</technique_common>
					</bind_material>
				</instance_geometry>
			</node>
		</visual_scene>
	</library_visual_scenes>
	<scene>
		<instance_visual_scene url="#Scene"/>
	</scene>
</COLLADA>
