<?xml version="1.0" encoding="utf-8"?>
<COLLADA version="1.4.0" xmlns="http://www.collada.org/2005/11/COLLADASchema">
<asset>
<contributor>
<author>AC3D exporter- http://www.inivis.com</author>
<authoring_tool>AC3D</authoring_tool>
<comments></comments>
<copyright></copyright>
</contributor>
<created></created>
<modified></modified>
<up_axis>Y_UP</up_axis>
<unit meter="1.0" name="meter"/>
</asset>
<library_materials>
<material id="acmat0" name="acmat0">
<instance_effect url="#Material0-effect" />
</material>
</library_materials>
<library_images>
<image id="ID0-LibImage" name="ID0-LibImage">
<init_from>file:///C:/Users/Debbie/Dropbox/scripts/Source Code/LibPrivate/Sonic/3D Model/cool_ice_texture.jpg</init_from>
</image>
</library_images>
<library_effects>
<effect id="Material0-effect" name="Material0-effect">
<profile_COMMON>
<newparam sid="ID0-LibImageSurface">
<surface type="2D">
<init_from>ID0-LibImage</init_from>
</surface>
</newparam>
<newparam sid="ID0-LibImageSampler">
<sampler2D>
<source>ID0-LibImageSurface</source>
<minfilter>LINEAR_MIPMAP_LINEAR</minfilter>
<magfilter>LINEAR</magfilter>
</sampler2D>
</newparam>
<technique sid="common">
<phong>
<diffuse>
<texture texture="ID0-LibImageSampler" texcoord="TEX0"></texture>
<color>1.000000 1.000000 1.000000 1.000000</color>
</diffuse>
<specular>
<color>0.200000 0.200000 0.200000 1.000000</color>
</specular>
<reflective>
<color>1.000000 1.000000 1.000000 1.000000</color>
</reflective>
<reflectivity>
<float>1.000000</float>
</reflectivity>
<transparent opaque="A_ONE">
<color>0.000000 0.000000 0.000000 1.000000</color>
</transparent>
</phong>
</technique>
</profile_COMMON>
</effect>
</library_effects>
<library_geometries>
<geometry id="ID0" name="line">
<mesh>
<source id="ID0-Position">
<float_array count="186" id="ID0-Position-Array">-0.0408114 0.0603846 -0.0933136 0.0672432 0.0351559 -0.0933918 -0.0813314 2.48794e-005 -0.0933136 -0.0675588 0.0369253 -0.0933136 
0.0404958 -0.0616043 -0.0933136 -0.000157539 -0.071432 -0.0933136 0.0775191 0.000179128 -0.0933136 0.0701827 -0.0349791 -0.0933136 
0.0388942 0.0603846 -0.0933136 -0.000157539 0.0697616 -0.0933136 -0.0704971 -0.0349791 -0.0933136 -0.0408114 -0.0616043 -0.0933136 
0.0775191 -0.000255289 -0.134715 0.0672432 0.0345496 -0.134818 0.111458 -0.000284802 -0.113221 0.0962871 0.0496237 -0.113221 
0.0388942 0.0601044 -0.134715 0.0553624 0.0855396 -0.113221 -0.000157539 0.0694814 -0.134715 -9.71183e-006 0.0985603 -0.113221 
-0.0408114 0.0601044 -0.134715 -0.0553816 0.0855396 -0.113221 -0.0675588 0.0365455 -0.134715 -0.096306 0.0496237 -0.113221 
-0.0813314 -0.000255289 -0.134715 -0.111458 5.12227e-008 -0.113221 -0.0704971 -0.0352593 -0.134715 -0.096306 -0.0496238 -0.113221 
-0.0408114 -0.0618845 -0.134715 -0.0553816 -0.0855394 -0.113221 -0.000157539 -0.0717122 -0.134715 -9.71183e-006 -0.0985603 -0.113221 
0.0404958 -0.0618845 -0.134715 0.0553624 -0.0855394 -0.113221 0.0701827 -0.0352593 -0.134715 0.0962872 -0.0496238 -0.113221 
-0.047115 -0.0704116 -0.107294 -0.047115 -0.0707371 -0.120805 -0.0788039 -0.0369715 -0.107294 -0.0788039 -0.037297 -0.120805 
0.0839319 -0.0398286 -0.120805 0.049368 -0.0707599 -0.120805 0.00203587 -0.0821769 -0.120805 -0.0452968 -0.0707599 -0.120805 
-0.0924736 0.000836462 -0.120805 -0.0745744 0.043589 -0.120805 -0.0434328 0.070958 -0.120805 0.00389995 0.0818514 -0.120805 
0.0475032 0.070958 -0.120805 0.0805096 0.0412702 -0.120838 0.0924736 0.000836462 -0.120805 -0.0452968 -0.0704343 -0.107294 
0.00389995 0.0821769 -0.107294 0.0475032 0.0712835 -0.107294 0.0839319 -0.0395031 -0.107294 0.0924736 0.00134111 -0.107294 
0.00203587 -0.0818514 -0.107294 -0.0434328 0.0712835 -0.107294 0.049368 -0.0704343 -0.107294 -0.0745744 0.0440302 -0.107294 
-0.0924736 0.00116198 -0.107294 0.0805096 0.0419746 -0.107319 </float_array>
<technique_common>
<accessor count="62" source="#ID0-Position-Array" stride="3">
<param name="X" type="float"/>
<param name="Y" type="float"/>
<param name="Z" type="float"/>
</accessor>
</technique_common>
</source>
<vertices id="ID0-Vertex">
<input semantic="POSITION" source="#ID0-Position"/>
</vertices>
<source id="ID0-Normal">
<float_array count="576" id="ID0-Normal-Array">
0.466441 0.884149 -0.0266921 0.466441 0.884149 -0.0266921 0.844147 0.535684 -0.0213848 0.844147 0.535684 -0.0213848 
-0.99967 0.0256599 -0.00150284 -0.99967 0.0256599 -0.00150284 -0.811616 0.583956 -0.0165694 -0.811616 0.583956 -0.0165694 
-0.811616 0.583956 -0.0165694 -0.811616 0.583956 -0.0165694 -0.45505 0.890166 -0.0231065 -0.45505 0.890166 -0.0231065 
0.866025 -0.499839 0.0127568 0.866025 -0.499839 0.0127568 0.464646 -0.88524 0.0213281 0.464646 -0.88524 0.0213281 
0.464646 -0.88524 0.0213281 0.464646 -0.88524 0.0213281 1.42553e-006 -0.99971 0.024086 1.42553e-006 -0.99971 0.024086 
-0.45505 0.890166 -0.0231065 -0.45505 0.890166 -0.0231065 0.00930366 0.999667 -0.0240831 0.00930366 0.999667 -0.0240831 
0.844147 0.535684 -0.0213848 0.844147 0.535684 -0.0213848 0.999192 0.0400722 -0.00327082 0.999192 0.0400722 -0.00327082 
1.42553e-006 -0.99971 0.024086 1.42553e-006 -0.99971 0.024086 -0.234419 -0.971854 0.0234149 -0.234419 -0.971854 0.0234149 
0.999192 0.0400722 -0.00327082 0.999192 0.0400722 -0.00327082 0.866025 -0.499839 0.0127568 0.866025 -0.499839 0.0127568 
0.00930366 0.999667 -0.0240831 0.00930366 0.999667 -0.0240831 0.466441 0.884149 -0.0266921 0.466441 0.884149 -0.0266921 
-0.99967 0.0256599 -0.00150284 -0.851751 -0.523794 0.0126198 -0.851751 -0.523794 0.0126198 -0.99967 0.0256599 -0.00150284 
-0.851751 -0.523794 0.0126198 -0.725757 -0.687751 0.01657 -0.725757 -0.687751 0.01657 -0.851751 -0.523794 0.0126198 
0.520261 0.0204909 0.853762 0.520261 0.0204909 0.853762 0.465421 -0.275058 0.841265 0.465421 -0.275058 0.841265 
0.465421 -0.275058 0.841265 0.465421 -0.275058 0.841265 0.266495 -0.512207 0.816471 0.266495 -0.512207 0.816471 
0.481626 -0.318207 -0.816567 0.481626 -0.318207 -0.816567 0.277355 -0.544145 -0.791821 0.277355 -0.544145 -0.791821 
0.266495 -0.512207 0.816471 0.266495 -0.512207 0.816471 -0.000118598 -0.589042 0.808103 -0.000118598 -0.589042 0.808103 
0.277355 -0.544145 -0.791821 0.277355 -0.544145 -0.791821 -0.000113434 -0.623083 -0.782156 -0.000113434 -0.623083 -0.782156 
-0.000118598 -0.589042 0.808103 -0.000118598 -0.589042 0.808103 -0.267551 -0.51375 0.815155 -0.267551 -0.51375 0.815155 
-0.000113434 -0.623083 -0.782156 -0.000113434 -0.623083 -0.782156 -0.278385 -0.545681 -0.790401 -0.278385 -0.545681 -0.790401 
-0.267551 -0.51375 0.815155 -0.267551 -0.51375 0.815155 -0.470795 -0.303989 0.828217 -0.470795 -0.303989 0.828217 
-0.278385 -0.545681 -0.790401 -0.278385 -0.545681 -0.790401 -0.495475 -0.322679 -0.806463 -0.495475 -0.322679 -0.806463 
-0.470795 -0.303989 0.828217 -0.470795 -0.303989 0.828217 -0.540251 0.0134631 0.841396 -0.540251 0.0134631 0.841396 
-0.495475 -0.322679 -0.806463 -0.495475 -0.322679 -0.806463 -0.572447 -0.00250058 -0.819938 -0.572447 -0.00250058 -0.819938 
-0.540251 0.0134631 0.841396 -0.540251 0.0134631 0.841396 -0.453337 0.315358 0.833687 -0.453337 0.315358 0.833687 
-0.572447 -0.00250058 -0.819938 -0.572447 -0.00250058 -0.819938 -0.481682 0.31396 -0.818176 -0.481682 0.31396 -0.818176 
-0.481682 0.31396 -0.818176 -0.481682 0.31396 -0.818176 -0.26974 0.52577 -0.806726 -0.26974 0.52577 -0.806726 
-0.26974 0.52577 -0.806726 -0.26974 0.52577 -0.806726 -0.000393394 0.594383 -0.804182 -0.000393394 0.594383 -0.804182 
0.00213056 0.568538 0.822655 0.00213056 0.568538 0.822655 0.254279 0.491309 0.833041 0.254279 0.491309 0.833041 
-0.000393394 0.594383 -0.804182 -0.000393394 0.594383 -0.804182 0.263165 0.516989 -0.814535 0.263165 0.516989 -0.814535 
0.254279 0.491309 0.833041 0.254279 0.491309 0.833041 0.440027 0.284619 0.851686 0.440027 0.284619 0.851686 
0.263165 0.516989 -0.814535 0.263165 0.516989 -0.814535 0.464448 0.301647 -0.832644 0.464448 0.301647 -0.832644 
0.440027 0.284619 0.851686 0.520261 0.0204909 0.853762 0.520261 0.0204909 0.853762 0.440027 0.284619 0.851686 
0.54808 -0.00437531 -0.836414 0.54808 -0.00437531 -0.836414 0.481626 -0.318207 -0.816567 0.481626 -0.318207 -0.816567 
0.54808 -0.00437531 -0.836414 0.464448 0.301647 -0.832644 0.464448 0.301647 -0.832644 0.54808 -0.00437531 -0.836414 
0.841935 0.539567 -0.00365154 0.841935 0.539567 -0.00365154 0.465444 0.885057 -0.00599016 0.465444 0.885057 -0.00599016 
-0.463035 -0.886308 0.00751421 -0.463035 -0.886308 0.00751421 -0.00448296 -0.999967 0.00676817 -0.00448296 -0.999967 0.00676817 
-0.866462 0.49923 -0.00357882 -0.866462 0.49923 -0.00357882 -0.999199 -0.0400021 0.000917003 -0.999199 -0.0400021 0.000917003 
0.465444 0.885057 -0.00599016 0.465444 0.885057 -0.00599016 -1.37973e-006 0.999977 -0.00676824 -1.37973e-006 0.999977 -0.00676824 
-0.999199 -0.0400021 0.000917003 -0.999199 -0.0400021 0.000917003 -0.844754 -0.535121 0.00600058 -0.844754 -0.535121 0.00600058 
-1.37973e-006 0.999977 -0.00676824 -1.37973e-006 0.999977 -0.00676824 -0.465438 0.88506 -0.00599018 -0.465438 0.88506 -0.00599018 
-0.465438 0.88506 -0.00599018 -0.465438 0.88506 -0.00599018 -0.866462 0.49923 -0.00357882 -0.866462 0.49923 -0.00357882 
0.823058 -0.56794 0.00452657 0.823058 -0.56794 0.00452657 0.999593 -0.0285262 0.0004152 0.999593 -0.0285262 0.0004152 
0.999593 -0.0285262 0.0004152 0.999593 -0.0285262 0.0004152 0.841935 0.539567 -0.00365154 0.841935 0.539567 -0.00365154 
-0.844754 -0.535121 0.00600058 -0.844754 -0.535121 0.00600058 -0.463035 -0.886308 0.00751421 -0.463035 -0.886308 0.00751421 
-0.256566 0.503154 0.825233 -0.256566 0.503154 0.825233 0.00213056 0.568538 0.822655 0.00213056 0.568538 0.822655 
-0.453337 0.315358 0.833687 -0.453337 0.315358 0.833687 -0.256566 0.503154 0.825233 -0.256566 0.503154 0.825233 
0.455857 -0.890029 0.00648999 0.455857 -0.890029 0.00648999 0.823058 -0.56794 0.00452657 0.823058 -0.56794 0.00452657 
-0.00448296 -0.999967 0.00676817 -0.00448296 -0.999967 0.00676817 0.455857 -0.890029 0.00648999 0.455857 -0.890029 0.00648999 

</float_array>
<technique_common>
<accessor count="192" source="#ID0-Normal-Array" stride="3">
<param name="X" type="float"/>
<param name="Y" type="float"/>
<param name="Z" type="float"/>
</accessor>
</technique_common>
</source>
<source id="ID0-TexCoord">
<float_array count="384" id="ID0-TexCoord-Array">
0.58729 -0.421789 0.586961 -0.578331 0.669515 -0.576083 0.670684 -0.423343 0.249471 -0.428035 0.250052 -0.572312 
0.333516 -0.575232 0.332804 -0.424943 0.332804 -0.424943 0.333516 -0.575232 0.409602 -0.577325 0.409266 -0.4228 
0.827825 -0.426434 0.8273 -0.574045 0.911594 -0.576429 0.911917 -0.424176 0.911917 -0.424176 0.911594 -0.576429 
1.00033 -0.577533 1.00033 -0.423128 0.409266 -0.4228 0.409602 -0.577325 0.499657 -0.579314 0.499657 -0.420759 
0.670684 -0.423343 0.669515 -0.576083 0.74961 -0.575739 0.750555 -0.424624 0.000325143 -0.423128 0.000334263 -0.577533 
0.0889608 -0.57627 0.0886363 -0.424334 0.750555 -0.424624 0.74961 -0.575739 0.8273 -0.574045 0.827825 -0.426434 
0.499657 -0.420759 0.499657 -0.579314 0.586961 -0.578331 0.58729 -0.421789 0 0 0 0 
0 0 0 0 0 0 0 0 0 0 0 0 
0.750431 -0.502187 0.74961 -0.575739 0.8273 -0.574045 0.829521 -0.502222 0.829521 -0.502222 0.8273 -0.574045 
0.911594 -0.576429 0.912698 -0.502295 0.827825 -0.426434 0.829521 -0.502222 0.912698 -0.502295 0.911917 -0.424176 
0.912698 -0.502295 0.911594 -0.576429 1.00033 -0.577533 1.00005 -0.502335 0.911917 -0.424176 0.912698 -0.502295 
1.00005 -0.502335 1.00033 -0.423128 5.49555e-005 -0.502335 0.000334263 -0.577533 0.0889608 -0.57627 0.0873263 -0.502295 
0.000325143 -0.423128 5.49555e-005 -0.502335 0.0873263 -0.502295 0.0886363 -0.424334 0.0873263 -0.502295 0.0889608 -0.57627 
0.172993 -0.573795 0.170492 -0.502221 0.0886363 -0.424334 0.0873263 -0.502295 0.170492 -0.502221 0.172469 -0.426681 
0.170492 -0.502221 0.172993 -0.573795 0.250052 -0.572312 0.25 -0.502187 0.172469 -0.426681 0.170492 -0.502221 
0.25 -0.502187 0.249471 -0.428035 0.25 -0.502187 0.250052 -0.572312 0.333516 -0.575232 0.329508 -0.502221 
0.249471 -0.428035 0.25 -0.502187 0.329508 -0.502221 0.332804 -0.424943 0.332804 -0.424943 0.329508 -0.502221 
0.412674 -0.502295 0.409266 -0.4228 0.409266 -0.4228 0.412674 -0.502295 0.499945 -0.502335 0.499657 -0.420759 
0.499945 -0.502335 0.499657 -0.579314 0.586961 -0.578331 0.587302 -0.502295 0.499657 -0.420759 0.499945 -0.502335 
0.587302 -0.502295 0.58729 -0.421789 0.587302 -0.502295 0.586961 -0.578331 0.669515 -0.576083 0.670479 -0.502222 
0.58729 -0.421789 0.587302 -0.502295 0.670479 -0.502222 0.670684 -0.423343 0.669515 -0.576083 0.74961 -0.575739 
0.750431 -0.502187 0.670479 -0.502222 0.750555 -0.424624 0.750431 -0.502187 0.829521 -0.502222 0.827825 -0.426434 
0.750555 -0.424624 0.670684 -0.423343 0.670479 -0.502222 0.750431 -0.502187 0.172469 -0.426681 0.172993 -0.573795 
0.0889608 -0.57627 0.0886363 -0.424334 0.58729 -0.421789 0.586961 -0.578331 0.499657 -0.579314 0.499657 -0.420759 
0.827825 -0.426434 0.8273 -0.574045 0.74961 -0.575739 0.750555 -0.424624 0.0886363 -0.424334 0.0889608 -0.57627 
0.000334263 -0.577533 0.000325143 -0.423128 0.750555 -0.424624 0.74961 -0.575739 0.669515 -0.576083 0.670684 -0.423343 
1.00033 -0.423128 1.00033 -0.577533 0.911594 -0.576429 0.911917 -0.424176 0.911917 -0.424176 0.911594 -0.576429 
0.8273 -0.574045 0.827825 -0.426434 0.332804 -0.424943 0.333516 -0.575232 0.250052 -0.572312 0.249471 -0.428035 
0.249471 -0.428035 0.250052 -0.572312 0.172993 -0.573795 0.172469 -0.426681 0.670684 -0.423343 0.669515 -0.576083 
0.586961 -0.578331 0.58729 -0.421789 0.412674 -0.502295 0.409602 -0.577325 0.499657 -0.579314 0.499945 -0.502335 
0.329508 -0.502221 0.333516 -0.575232 0.409602 -0.577325 0.412674 -0.502295 0.409266 -0.4228 0.409602 -0.577325 
0.333516 -0.575232 0.332804 -0.424943 0.499657 -0.420759 0.499657 -0.579314 0.409602 -0.577325 0.409266 -0.4228 

</float_array>
<technique_common>
<accessor count="192" source="#ID0-TexCoord-Array" stride="2">
<param name="S" type="float"/>
<param name="T" type="float"/>
</accessor>
</technique_common>
</source>
<polylist count="48" material="acmat0">
<input offset="0" semantic="VERTEX" source="#ID0-Vertex"/>
<input offset="1" semantic="NORMAL" source="#ID0-Normal"/>
<input offset="2" semantic="TEXCOORD" source="#ID0-TexCoord"/>
<vcount>
4 4 4 4 4 4 4 4 4 4 4 4 
4 4 4 4 4 4 4 4 4 4 4 4 
4 4 4 4 4 4 4 4 4 4 4 4 
4 4 4 4 4 4 4 4 4 4 4 4 

</vcount>
<p>
48 0 0 53 1 1 61 2 2 49 3 3 
44 4 4 60 5 5 59 6 6 45 7 7 
45 8 8 59 9 9 57 10 10 46 11 11 
40 12 12 54 13 13 58 14 14 41 15 15 
41 16 16 58 17 17 56 18 18 42 19 19 
46 20 20 57 21 21 52 22 22 47 23 23 
49 24 24 61 25 25 55 26 26 50 27 27 
42 28 28 56 29 29 51 30 30 43 31 31 
50 32 32 55 33 33 54 34 34 40 35 35 
47 36 36 52 37 37 53 38 38 48 39 39 
44 40 40 39 41 41 38 42 42 60 43 43 
39 44 44 37 45 45 36 46 46 38 47 47 
14 48 48 6 49 49 7 50 50 35 51 51 
35 52 52 7 53 53 4 54 54 33 55 55 
34 56 56 35 57 57 33 58 58 32 59 59 
33 60 60 4 61 61 5 62 62 31 63 63 
32 64 64 33 65 65 31 66 66 30 67 67 
31 68 68 5 69 69 11 70 70 29 71 71 
30 72 72 31 73 73 29 74 74 28 75 75 
29 76 76 11 77 77 10 78 78 27 79 79 
28 80 80 29 81 81 27 82 82 26 83 83 
27 84 84 10 85 85 2 86 86 25 87 87 
26 88 88 27 89 89 25 90 90 24 91 91 
25 92 92 2 93 93 3 94 94 23 95 95 
24 96 96 25 97 97 23 98 98 22 99 99 
22 100 100 23 101 101 21 102 102 20 103 103 
20 104 104 21 105 105 19 106 106 18 107 107 
19 108 108 9 109 109 8 110 110 17 111 111 
18 112 112 19 113 113 17 114 114 16 115 115 
17 116 116 8 117 117 1 118 118 15 119 119 
16 120 120 17 121 121 15 122 122 13 123 123 
1 124 124 6 125 125 14 126 126 15 127 127 
12 128 128 14 129 129 35 130 130 34 131 131 
12 132 132 13 133 133 15 134 134 14 135 135 
26 136 136 10 137 137 11 138 138 28 139 139 
16 140 140 8 141 141 9 142 142 18 143 143 
34 144 144 7 145 145 6 146 146 12 147 147 
28 148 148 11 149 149 5 150 150 30 151 151 
12 152 152 6 153 153 1 154 154 13 155 155 
30 156 156 5 157 157 4 158 158 32 159 159 
32 160 160 4 161 161 7 162 162 34 163 163 
22 164 164 3 165 165 2 166 166 24 167 167 
24 168 168 2 169 169 10 170 170 26 171 171 
13 172 172 1 173 173 8 174 174 16 175 175 
21 176 176 0 177 177 9 178 178 19 179 179 
23 180 180 3 181 181 0 182 182 21 183 183 
20 184 184 0 185 185 3 186 186 22 187 187 
18 188 188 9 189 189 0 190 190 20 191 191 

</p>
</polylist>
</mesh>
</geometry>
</library_geometries>
<library_visual_scenes>
<visual_scene id="Scene" name="Scene">
<node id="ID0inst" name="">
<node id="ID0inst" name="line">
<instance_geometry url="#ID0">
<bind_material>
<technique_common>
<instance_material symbol="acmat0" target="#acmat0">
<bind_vertex_input semantic="TEX0" input_semantic="TEXCOORD" input_set="0" />
</instance_material>
</technique_common>
</bind_material>
</instance_geometry>
</node>
</node>
</visual_scene>
</library_visual_scenes><scene>
<instance_visual_scene url="#Scene"/>
</scene>
</COLLADA>
